<svg width="10" height="11" viewBox="0 0 10 11" fill="none" xmlns="http://www.w3.org/2000/svg">
<path d="M5 1.4375C4.19652 1.4375 3.41107 1.67576 2.743 2.12215C2.07492 2.56855 1.55422 3.20302 1.24674 3.94535C0.93926 4.68767 0.858809 5.50451 1.01556 6.29255C1.17231 7.0806 1.55923 7.80447 2.12738 8.37262C2.69553 8.94077 3.4194 9.32769 4.20745 9.48444C4.9955 9.64119 5.81233 9.56074 6.55465 9.25326C7.29698 8.94578 7.93145 8.42508 8.37785 7.757C8.82424 7.08893 9.0625 6.30349 9.0625 5.5C9.06136 4.42291 8.63299 3.39025 7.87137 2.62863C7.10975 1.86701 6.07709 1.43864 5 1.4375ZM7.1875 5.8125H5C4.91712 5.8125 4.83764 5.77958 4.77903 5.72097C4.72043 5.66237 4.6875 5.58288 4.6875 5.5V3.3125C4.6875 3.22962 4.72043 3.15013 4.77903 3.09153C4.83764 3.03292 4.91712 3 5 3C5.08288 3 5.16237 3.03292 5.22097 3.09153C5.27958 3.15013 5.3125 3.22962 5.3125 3.3125V5.1875H7.1875C7.27038 5.1875 7.34987 5.22042 7.40847 5.27903C7.46708 5.33763 7.5 5.41712 7.5 5.5C7.5 5.58288 7.46708 5.66237 7.40847 5.72097C7.34987 5.77958 7.27038 5.8125 7.1875 5.8125Z" fill="#8AB4F8"/>
</svg>
