<svg width="18" height="18" viewBox="0 0 18 18" fill="none" xmlns="http://www.w3.org/2000/svg">
<g id="Component 1">
<path id="Vector" opacity="0.2" d="M15.1876 2.8125V11.8125H11.8126V6.1875H6.18762V2.8125H15.1876Z" fill="#E8EAED"/>
<path id="Vector_2" d="M15.1876 2.25H6.18762C6.03844 2.25 5.89536 2.30926 5.78987 2.41475C5.68439 2.52024 5.62512 2.66332 5.62512 2.8125V5.625H2.81262C2.66344 5.625 2.52036 5.68426 2.41487 5.78975C2.30939 5.89524 2.25012 6.03832 2.25012 6.1875V15.1875C2.25012 15.3367 2.30939 15.4798 2.41487 15.5852C2.52036 15.6907 2.66344 15.75 2.81262 15.75H11.8126C11.9618 15.75 12.1049 15.6907 12.2104 15.5852C12.3159 15.4798 12.3751 15.3367 12.3751 15.1875V12.375H15.1876C15.3368 12.375 15.4799 12.3157 15.5854 12.2102C15.6909 12.1048 15.7501 11.9617 15.7501 11.8125V2.8125C15.7501 2.66332 15.6909 2.52024 15.5854 2.41475C15.4799 2.30926 15.3368 2.25 15.1876 2.25ZM11.2501 14.625H3.37512V6.75H11.2501V14.625ZM14.6251 11.25H12.3751V6.1875C12.3751 6.03832 12.3159 5.89524 12.2104 5.78975C12.1049 5.68426 11.9618 5.625 11.8126 5.625H6.75012V3.375H14.6251V11.25Z" fill="#E8EAED"/>
</g>
</svg>
