<svg width="15" height="15" viewBox="0 0 15 15" fill="none" xmlns="http://www.w3.org/2000/svg">
<path opacity="0.2" d="M13.125 5.625L8.52246 8.90625H6.47754L1.875 5.625L7.5 1.875L13.125 5.625Z" fill="#E8EAED"/>
<path d="M13.3852 5.23483L7.76016 1.48483C7.68313 1.43343 7.5926 1.40601 7.5 1.40601C7.4074 1.40601 7.31687 1.43343 7.23984 1.48483L1.61484 5.23483C1.55063 5.27767 1.49799 5.3357 1.4616 5.40378C1.42521 5.47186 1.4062 5.54787 1.40625 5.62506V11.7188C1.40625 11.9675 1.50502 12.2059 1.68084 12.3817C1.85665 12.5575 2.09511 12.6563 2.34375 12.6563H12.6562C12.9049 12.6563 13.1433 12.5575 13.3192 12.3817C13.495 12.2059 13.5938 11.9675 13.5938 11.7188V5.62506C13.5938 5.54787 13.5748 5.47186 13.5384 5.40378C13.502 5.3357 13.4494 5.27767 13.3852 5.23483ZM5.66719 8.90631L2.34375 11.2501V6.53502L5.66719 8.90631ZM6.62637 9.37506H8.37363L11.6918 11.7188H3.3082L6.62637 9.37506ZM9.33281 8.90631L12.6562 6.53502V11.2501L9.33281 8.90631ZM7.5 2.43815L12.2994 5.63795L8.37363 8.43756H6.62754L2.70176 5.63795L7.5 2.43815Z" fill="#E8EAED"/>
</svg>
