<svg width="1000" height="1000" viewBox="0 0 1000 1000" fill="none" xmlns="http://www.w3.org/2000/svg">
<path d="M264.73 545.83C264.73 545.83 249.39 399.83 353.81 380.17C458.23 360.51 477.64 377 550.37 327.08C623.1 277.16 852.89 424.51 806.37 631.77C800.883 656.35 793.921 680.577 785.52 704.32" stroke="#CCDDE2" stroke-width="3.7" stroke-miterlimit="10"/>
<path d="M715.07 449.18H677.09V945.17H715.07V449.18Z" stroke="#CCDDE2" stroke-width="3.7" stroke-miterlimit="10"/>
<path d="M375.28 830.91V449.18H677.09V945.18H626.24V792.85C626.227 786.744 623.791 780.892 619.468 776.58C615.144 772.268 609.286 769.847 603.18 769.85H451.38C445.274 769.85 439.418 772.271 435.095 776.583C430.772 780.894 428.336 786.744 428.32 792.85V945.18H378.83M411.49 707.37C411.171 707.369 410.856 707.304 410.562 707.181C410.269 707.058 410.002 706.877 409.778 706.651C409.554 706.424 409.377 706.155 409.258 705.86C409.138 705.565 409.077 705.249 409.08 704.93V685.41C409.08 684.771 409.334 684.158 409.786 683.706C410.238 683.254 410.851 683 411.49 683H450.85C451.169 682.997 451.485 683.058 451.78 683.177C452.075 683.297 452.344 683.474 452.571 683.698C452.797 683.922 452.978 684.189 453.101 684.482C453.224 684.776 453.289 685.091 453.29 685.41V704.93C453.291 705.251 453.229 705.569 453.107 705.865C452.985 706.162 452.805 706.431 452.578 706.658C452.351 706.885 452.082 707.065 451.785 707.187C451.489 707.309 451.171 707.371 450.85 707.37H411.49ZM480.68 739.05C480.675 739.694 480.415 740.309 479.958 740.762C479.501 741.216 478.884 741.47 478.24 741.47H438.88C438.236 741.47 437.619 741.216 437.162 740.762C436.705 740.309 436.445 739.694 436.44 739.05V719.51C436.448 718.868 436.708 718.255 437.165 717.804C437.622 717.353 438.238 717.1 438.88 717.1H478.24C478.882 717.1 479.498 717.353 479.955 717.804C480.412 718.255 480.672 718.868 480.68 719.51V739.05ZM461 704.93V685.41C461.001 685.091 461.066 684.776 461.189 684.482C461.312 684.189 461.493 683.922 461.719 683.698C461.946 683.474 462.215 683.297 462.51 683.177C462.805 683.058 463.121 682.997 463.44 683H502.8C503.442 683 504.058 683.253 504.515 683.704C504.972 684.155 505.232 684.768 505.24 685.41V704.93C505.237 705.576 504.979 706.195 504.522 706.652C504.065 707.109 503.446 707.367 502.8 707.37H463.43C463.11 707.37 462.793 707.307 462.498 707.184C462.202 707.061 461.934 706.881 461.708 706.655C461.482 706.428 461.304 706.159 461.182 705.863C461.061 705.567 460.999 705.25 461 704.93V704.93ZM532.42 739.05C532.421 739.367 532.36 739.682 532.239 739.975C532.119 740.269 531.942 740.536 531.718 740.761C531.494 740.985 531.228 741.164 530.935 741.286C530.642 741.407 530.327 741.47 530.01 741.47H490.61C490.293 741.47 489.978 741.407 489.685 741.286C489.392 741.164 489.126 740.985 488.902 740.761C488.678 740.536 488.501 740.269 488.381 739.975C488.26 739.682 488.199 739.367 488.2 739.05V719.51C488.2 718.871 488.454 718.258 488.906 717.806C489.358 717.354 489.971 717.1 490.61 717.1H530C530.639 717.1 531.252 717.354 531.704 717.806C532.156 718.258 532.41 718.871 532.41 719.51L532.42 739.05ZM557.14 704.93C557.141 705.251 557.079 705.569 556.957 705.865C556.835 706.162 556.655 706.431 556.428 706.658C556.201 706.885 555.932 707.065 555.635 707.187C555.339 707.309 555.021 707.371 554.7 707.37H515.34C515.021 707.369 514.705 707.304 514.411 707.181C514.117 707.058 513.849 706.878 513.625 706.651C513.4 706.425 513.222 706.156 513.101 705.861C512.98 705.565 512.919 705.249 512.92 704.93V685.41C512.92 685.093 512.983 684.778 513.104 684.485C513.226 684.192 513.405 683.926 513.629 683.702C513.854 683.478 514.121 683.301 514.415 683.18C514.708 683.06 515.023 682.999 515.34 683H554.69C555.009 682.997 555.325 683.058 555.62 683.177C555.915 683.297 556.184 683.474 556.411 683.698C556.637 683.922 556.818 684.189 556.941 684.482C557.064 684.776 557.129 685.091 557.13 685.41L557.14 704.93ZM609.05 704.93C609.053 705.249 608.992 705.565 608.872 705.86C608.753 706.155 608.576 706.424 608.352 706.651C608.128 706.877 607.861 707.058 607.568 707.181C607.274 707.304 606.959 707.369 606.64 707.37H567.27C566.949 707.371 566.631 707.309 566.335 707.187C566.038 707.065 565.769 706.885 565.542 706.658C565.315 706.431 565.135 706.162 565.013 705.865C564.891 705.569 564.829 705.251 564.83 704.93V685.41C564.831 685.091 564.896 684.776 565.019 684.482C565.142 684.189 565.323 683.922 565.549 683.698C565.776 683.474 566.045 683.297 566.34 683.177C566.635 683.058 566.951 682.997 567.27 683H606.63C607.269 683 607.882 683.254 608.334 683.706C608.786 684.158 609.04 684.771 609.04 685.41L609.05 704.93ZM645.49 631.64C645.498 634.665 644.909 637.663 643.756 640.46C642.604 643.258 640.911 645.8 638.775 647.942C636.638 650.084 634.1 651.784 631.306 652.943C628.511 654.103 625.515 654.7 622.49 654.7H430.33C424.215 654.697 418.351 652.267 414.027 647.943C409.703 643.619 407.273 637.755 407.27 631.64V550.33C407.27 544.214 409.7 538.349 414.024 534.024C418.349 529.699 424.214 527.27 430.33 527.27H622.45C625.475 527.27 628.471 527.867 631.266 529.026C634.06 530.186 636.598 531.886 638.735 534.028C640.871 536.17 642.564 538.712 643.716 541.51C644.869 544.307 645.458 547.305 645.45 550.33L645.49 631.64ZM642.12 500.34C641.062 501.412 639.8 502.262 638.409 502.841C637.019 503.419 635.526 503.715 634.02 503.71H420.55C417.509 503.707 414.593 502.498 412.442 500.348C410.292 498.197 409.083 495.281 409.08 492.24C409.091 489.201 410.302 486.29 412.451 484.141C414.6 481.992 417.511 480.78 420.55 480.77H634C635.507 480.769 636.999 481.064 638.391 481.64C639.783 482.216 641.048 483.061 642.113 484.126C643.179 485.192 644.024 486.457 644.6 487.849C645.176 489.241 645.471 490.733 645.47 492.24C645.476 493.746 645.182 495.237 644.605 496.628C644.028 498.019 643.18 499.281 642.11 500.34H642.12ZM375.28 887.76V861.91V887.76Z" stroke="#CCDDE2" stroke-width="3.7" stroke-miterlimit="10"/>
<path d="M450.85 707.37H411.49C411.171 707.369 410.856 707.305 410.562 707.181C410.269 707.058 410.002 706.877 409.778 706.651C409.554 706.424 409.377 706.155 409.257 705.86C409.138 705.565 409.077 705.249 409.08 704.93V685.41C409.08 684.771 409.334 684.158 409.786 683.706C410.238 683.254 410.851 683 411.49 683H450.85C451.169 682.997 451.485 683.058 451.78 683.178C452.075 683.297 452.344 683.474 452.571 683.698C452.797 683.922 452.978 684.189 453.101 684.482C453.224 684.776 453.289 685.091 453.29 685.41V704.93C453.291 705.251 453.229 705.569 453.107 705.865C452.985 706.162 452.805 706.432 452.578 706.658C452.351 706.885 452.082 707.065 451.785 707.187C451.489 707.309 451.171 707.371 450.85 707.37Z" stroke="#CCDDE2" stroke-width="3.7" stroke-miterlimit="10"/>
<path d="M438.88 717.1H478.24C478.882 717.1 479.498 717.353 479.955 717.804C480.412 718.255 480.672 718.868 480.68 719.51V739.05C480.675 739.694 480.415 740.309 479.958 740.763C479.501 741.216 478.884 741.47 478.24 741.47H438.88C438.236 741.47 437.619 741.216 437.162 740.763C436.705 740.309 436.445 739.694 436.44 739.05V719.51C436.448 718.868 436.708 718.255 437.165 717.804C437.622 717.353 438.238 717.1 438.88 717.1V717.1Z" stroke="#CCDDE2" stroke-width="3.7" stroke-miterlimit="10"/>
<path d="M505.23 685.41V704.93C505.227 705.576 504.969 706.195 504.512 706.652C504.055 707.11 503.436 707.367 502.79 707.37H463.43C463.109 707.371 462.791 707.309 462.495 707.187C462.198 707.065 461.929 706.885 461.702 706.658C461.475 706.432 461.295 706.162 461.173 705.865C461.051 705.569 460.989 705.251 460.99 704.93V685.41C460.991 685.091 461.056 684.776 461.179 684.482C461.302 684.189 461.483 683.922 461.709 683.698C461.936 683.474 462.205 683.297 462.5 683.178C462.795 683.058 463.111 682.997 463.43 683H502.79C503.432 683 504.048 683.253 504.505 683.704C504.962 684.155 505.222 684.768 505.23 685.41V685.41Z" stroke="#CCDDE2" stroke-width="3.7" stroke-miterlimit="10"/>
<path d="M530 717.1H490.61C489.279 717.1 488.2 718.179 488.2 719.51V739.06C488.2 740.391 489.279 741.47 490.61 741.47H530C531.331 741.47 532.41 740.391 532.41 739.06V719.51C532.41 718.179 531.331 717.1 530 717.1Z" stroke="#CCDDE2" stroke-width="3.7" stroke-miterlimit="10"/>
<path d="M515.34 707.37C515.021 707.369 514.705 707.305 514.411 707.181C514.117 707.058 513.849 706.878 513.625 706.651C513.4 706.425 513.222 706.156 513.101 705.861C512.98 705.565 512.919 705.249 512.92 704.93V685.41C512.92 685.093 512.983 684.779 513.104 684.485C513.226 684.192 513.405 683.926 513.629 683.702C513.854 683.478 514.121 683.301 514.415 683.181C514.708 683.06 515.023 682.999 515.34 683H554.69C555.009 682.997 555.325 683.058 555.62 683.178C555.915 683.297 556.184 683.474 556.411 683.698C556.637 683.922 556.818 684.189 556.941 684.482C557.065 684.776 557.129 685.091 557.13 685.41V704.93C557.131 705.251 557.069 705.569 556.947 705.865C556.825 706.162 556.645 706.432 556.418 706.658C556.191 706.885 555.922 707.065 555.625 707.187C555.329 707.309 555.011 707.371 554.69 707.37H515.34Z" stroke="#CCDDE2" stroke-width="3.7" stroke-miterlimit="10"/>
<path d="M567.27 707.37C566.949 707.371 566.631 707.309 566.335 707.187C566.038 707.065 565.769 706.885 565.542 706.658C565.315 706.432 565.135 706.162 565.013 705.865C564.891 705.569 564.829 705.251 564.83 704.93V685.41C564.831 685.091 564.896 684.776 565.019 684.482C565.142 684.189 565.323 683.922 565.549 683.698C565.776 683.474 566.045 683.297 566.34 683.178C566.635 683.058 566.951 682.997 567.27 683H606.63C607.269 683 607.882 683.254 608.334 683.706C608.786 684.158 609.04 684.771 609.04 685.41V704.93C609.043 705.249 608.982 705.565 608.863 705.86C608.743 706.155 608.566 706.424 608.342 706.651C608.118 706.877 607.851 707.058 607.558 707.181C607.264 707.305 606.949 707.369 606.63 707.37H567.27Z" stroke="#CCDDE2" stroke-width="3.7" stroke-miterlimit="10"/>
<path d="M626.24 792.85V945.18H428.32V792.85C428.336 786.744 430.772 780.895 435.095 776.583C439.418 772.271 445.274 769.85 451.38 769.85H603.18C609.286 769.847 615.144 772.268 619.468 776.58C623.791 780.892 626.227 786.744 626.24 792.85V792.85Z" stroke="#CCDDE2" stroke-width="3.7" stroke-miterlimit="10"/>
<path d="M409.08 492.24C409.091 489.201 410.302 486.29 412.451 484.141C414.6 481.992 417.511 480.781 420.55 480.77H634C635.507 480.769 636.999 481.064 638.391 481.64C639.783 482.216 641.048 483.061 642.113 484.127C643.179 485.192 644.024 486.457 644.6 487.849C645.176 489.241 645.471 490.733 645.47 492.24C645.459 495.279 644.248 498.19 642.099 500.339C639.95 502.488 637.039 503.699 634 503.71H420.55C417.509 503.707 414.593 502.498 412.442 500.348C410.292 498.197 409.083 495.281 409.08 492.24V492.24Z" stroke="#CCDDE2" stroke-width="3.7" stroke-miterlimit="10"/>
<path d="M514.88 561.7V620.37C514.883 622.502 514.465 624.614 513.651 626.585C512.837 628.555 511.643 630.347 510.137 631.856C508.631 633.365 506.842 634.562 504.872 635.38C502.903 636.197 500.792 636.619 498.66 636.62H441.77C437.465 636.615 433.338 634.9 430.296 631.853C427.254 628.806 425.547 624.675 425.55 620.37V561.7C425.549 559.569 425.967 557.458 426.782 555.488C427.596 553.519 428.79 551.729 430.297 550.221C431.803 548.713 433.591 547.516 435.56 546.699C437.528 545.882 439.639 545.461 441.77 545.46H498.66C500.792 545.46 502.903 545.88 504.872 546.697C506.841 547.513 508.63 548.709 510.136 550.218C511.643 551.726 512.837 553.516 513.651 555.487C514.465 557.457 514.883 559.568 514.88 561.7Z" stroke="#CCDDE2" stroke-width="3.7" stroke-miterlimit="10"/>
<path d="M626.59 561.63V620.45C626.593 622.582 626.175 624.694 625.361 626.665C624.547 628.635 623.353 630.427 621.847 631.936C620.341 633.445 618.552 634.642 616.583 635.46C614.613 636.277 612.502 636.699 610.37 636.7H553.37C551.237 636.699 549.126 636.277 547.156 635.46C545.186 634.642 543.397 633.445 541.89 631.936C540.382 630.427 539.187 628.636 538.372 626.665C537.557 624.695 537.139 622.583 537.14 620.45V561.63C537.139 559.497 537.557 557.385 538.372 555.414C539.187 553.444 540.382 551.653 541.89 550.144C543.397 548.635 545.186 547.437 547.156 546.62C549.126 545.803 551.237 545.381 553.37 545.38H610.37C612.502 545.381 614.613 545.803 616.583 546.62C618.552 547.438 620.341 548.635 621.847 550.144C623.353 551.653 624.547 553.444 625.361 555.415C626.175 557.386 626.593 559.498 626.59 561.63Z" stroke="#CCDDE2" stroke-width="3.7" stroke-miterlimit="10"/>
<path d="M622.45 527.27H430.33C424.214 527.27 418.349 529.7 414.024 534.024C409.7 538.349 407.27 544.214 407.27 550.33V631.64C407.273 637.755 409.703 643.619 414.027 647.943C418.351 652.267 424.215 654.697 430.33 654.7H622.45C625.475 654.7 628.471 654.103 631.266 652.943C634.06 651.784 636.598 650.084 638.735 647.942C640.871 645.8 642.564 643.258 643.716 640.46C644.869 637.663 645.458 634.665 645.45 631.64V550.33C645.458 547.305 644.869 544.307 643.716 541.51C642.564 538.712 640.871 536.17 638.735 534.028C636.598 531.886 634.06 530.186 631.266 529.026C628.471 527.867 625.475 527.27 622.45 527.27ZM514.88 620.37C514.883 622.502 514.465 624.614 513.651 626.585C512.837 628.556 511.643 630.347 510.137 631.856C508.631 633.365 506.842 634.562 504.872 635.38C502.903 636.197 500.792 636.619 498.66 636.62H441.77C437.465 636.615 433.338 634.9 430.296 631.853C427.254 628.806 425.547 624.675 425.55 620.37V561.7C425.549 559.569 425.967 557.458 426.782 555.488C427.596 553.519 428.79 551.729 430.297 550.221C431.803 548.713 433.591 547.516 435.56 546.699C437.528 545.882 439.639 545.461 441.77 545.46H498.66C500.792 545.46 502.903 545.88 504.872 546.697C506.841 547.513 508.63 548.709 510.136 550.218C511.643 551.726 512.837 553.517 513.651 555.487C514.465 557.457 514.883 559.568 514.88 561.7V620.37ZM626.59 620.45C626.593 622.582 626.175 624.694 625.361 626.665C624.547 628.636 623.353 630.427 621.847 631.936C620.341 633.445 618.552 634.642 616.583 635.46C614.613 636.277 612.502 636.699 610.37 636.7H553.37C551.237 636.699 549.126 636.277 547.156 635.46C545.186 634.643 543.397 633.445 541.89 631.936C540.382 630.427 539.187 628.636 538.372 626.666C537.557 624.695 537.139 622.583 537.14 620.45V561.63C537.139 559.497 537.557 557.385 538.372 555.414C539.187 553.444 540.382 551.653 541.89 550.144C543.397 548.635 545.186 547.437 547.156 546.62C549.126 545.803 551.237 545.381 553.37 545.38H610.37C612.502 545.381 614.613 545.803 616.583 546.62C618.552 547.438 620.341 548.635 621.847 550.144C623.353 551.653 624.547 553.444 625.361 555.415C626.175 557.386 626.593 559.498 626.59 561.63V620.45Z" stroke="#CCDDE2" stroke-width="3.7" stroke-miterlimit="10"/>
<path d="M514.88 561.7V620.37C514.883 622.502 514.465 624.614 513.651 626.585C512.837 628.555 511.643 630.347 510.137 631.856C508.631 633.365 506.842 634.562 504.872 635.38C502.903 636.197 500.792 636.619 498.66 636.62H441.77C437.465 636.615 433.338 634.9 430.296 631.853C427.254 628.806 425.547 624.675 425.55 620.37V561.7C425.549 559.569 425.967 557.458 426.782 555.488C427.596 553.519 428.79 551.729 430.297 550.221C431.803 548.713 433.591 547.516 435.56 546.699C437.528 545.882 439.639 545.461 441.77 545.46H498.66C500.792 545.46 502.903 545.88 504.872 546.697C506.841 547.513 508.63 548.709 510.136 550.218C511.643 551.726 512.837 553.516 513.651 555.487C514.465 557.457 514.883 559.568 514.88 561.7Z" stroke="#CCDDE2" stroke-width="3.7" stroke-miterlimit="10"/>
<path d="M626.59 561.63V620.45C626.593 622.582 626.175 624.694 625.361 626.665C624.547 628.635 623.353 630.427 621.847 631.936C620.341 633.445 618.552 634.642 616.583 635.46C614.613 636.277 612.502 636.699 610.37 636.7H553.37C551.237 636.699 549.126 636.277 547.156 635.46C545.186 634.642 543.397 633.445 541.89 631.936C540.382 630.427 539.187 628.636 538.372 626.665C537.557 624.695 537.139 622.583 537.14 620.45V561.63C537.139 559.497 537.557 557.385 538.372 555.414C539.187 553.444 540.382 551.653 541.89 550.144C543.397 548.635 545.186 547.437 547.156 546.62C549.126 545.803 551.237 545.381 553.37 545.38H610.37C612.502 545.381 614.613 545.803 616.583 546.62C618.552 547.438 620.341 548.635 621.847 550.144C623.353 551.653 624.547 553.444 625.361 555.415C626.175 557.386 626.593 559.498 626.59 561.63Z" stroke="#CCDDE2" stroke-width="3.7" stroke-miterlimit="10"/>
<path d="M626.59 561.63V620.45C626.593 622.582 626.175 624.694 625.361 626.665C624.547 628.635 623.353 630.427 621.847 631.936C620.341 633.445 618.552 634.642 616.583 635.46C614.613 636.277 612.502 636.699 610.37 636.7H553.37C551.237 636.699 549.126 636.277 547.156 635.46C545.186 634.642 543.397 633.445 541.89 631.936C540.382 630.427 539.187 628.636 538.372 626.665C537.557 624.695 537.139 622.583 537.14 620.45V561.63C537.139 559.497 537.557 557.385 538.372 555.414C539.187 553.444 540.382 551.653 541.89 550.144C543.397 548.635 545.186 547.437 547.156 546.62C549.126 545.803 551.237 545.381 553.37 545.38H610.37C612.502 545.381 614.613 545.803 616.583 546.62C618.552 547.438 620.341 548.635 621.847 550.144C623.353 551.653 624.547 553.444 625.361 555.415C626.175 557.386 626.593 559.498 626.59 561.63Z" stroke="#CCDDE2" stroke-width="3.7" stroke-miterlimit="10"/>
<path d="M514.88 561.7V620.37C514.883 622.502 514.465 624.614 513.651 626.585C512.837 628.555 511.643 630.347 510.137 631.856C508.631 633.365 506.842 634.562 504.872 635.38C502.903 636.197 500.792 636.619 498.66 636.62H441.77C437.465 636.615 433.338 634.9 430.296 631.853C427.254 628.806 425.547 624.675 425.55 620.37V561.7C425.549 559.569 425.967 557.458 426.782 555.488C427.596 553.519 428.79 551.729 430.297 550.221C431.803 548.713 433.591 547.516 435.56 546.699C437.528 545.882 439.639 545.461 441.77 545.46H498.66C500.792 545.46 502.903 545.88 504.872 546.697C506.841 547.513 508.63 548.709 510.136 550.218C511.643 551.726 512.837 553.516 513.651 555.487C514.465 557.457 514.883 559.568 514.88 561.7Z" stroke="#CCDDE2" stroke-width="3.7" stroke-miterlimit="10"/>
<path d="M626.24 792.85V945.18H428.32V792.85C428.336 786.744 430.772 780.895 435.095 776.583C439.418 772.271 445.274 769.85 451.38 769.85H603.18C609.286 769.847 615.144 772.268 619.468 776.58C623.791 780.892 626.227 786.744 626.24 792.85V792.85Z" stroke="#CCDDE2" stroke-width="3.7" stroke-miterlimit="10"/>
<path d="M453.29 685.41V704.93C453.291 705.251 453.229 705.569 453.107 705.865C452.985 706.162 452.805 706.432 452.578 706.658C452.351 706.885 452.082 707.065 451.785 707.187C451.489 707.309 451.171 707.371 450.85 707.37H411.49C411.171 707.369 410.856 707.305 410.562 707.181C410.269 707.058 410.002 706.877 409.778 706.651C409.554 706.424 409.377 706.155 409.257 705.86C409.138 705.565 409.077 705.249 409.08 704.93V685.41C409.08 684.771 409.334 684.158 409.786 683.706C410.238 683.254 410.851 683 411.49 683H450.85C451.169 682.997 451.485 683.058 451.78 683.178C452.075 683.297 452.344 683.474 452.571 683.698C452.797 683.922 452.978 684.189 453.101 684.482C453.224 684.776 453.289 685.091 453.29 685.41V685.41Z" stroke="#CCDDE2" stroke-width="3.7" stroke-miterlimit="10"/>
<path d="M505.23 685.41V704.93C505.227 705.576 504.969 706.195 504.512 706.652C504.055 707.11 503.436 707.367 502.79 707.37H463.43C463.109 707.371 462.791 707.309 462.495 707.187C462.198 707.065 461.929 706.885 461.702 706.658C461.475 706.432 461.295 706.162 461.173 705.865C461.051 705.569 460.989 705.251 460.99 704.93V685.41C460.991 685.091 461.056 684.776 461.179 684.482C461.302 684.189 461.483 683.922 461.709 683.698C461.936 683.474 462.205 683.297 462.5 683.178C462.795 683.058 463.111 682.997 463.43 683H502.79C503.432 683 504.048 683.253 504.505 683.704C504.962 684.155 505.222 684.768 505.23 685.41V685.41Z" stroke="#CCDDE2" stroke-width="3.7" stroke-miterlimit="10"/>
<path d="M557.13 685.41V704.93C557.131 705.251 557.069 705.569 556.947 705.865C556.825 706.162 556.645 706.432 556.418 706.658C556.191 706.885 555.922 707.065 555.625 707.187C555.329 707.309 555.011 707.371 554.69 707.37H515.34C515.021 707.369 514.705 707.305 514.411 707.181C514.117 707.058 513.849 706.878 513.625 706.651C513.4 706.425 513.222 706.156 513.101 705.861C512.98 705.565 512.919 705.249 512.92 704.93V685.41C512.92 685.093 512.983 684.779 513.104 684.485C513.226 684.192 513.405 683.926 513.629 683.702C513.854 683.478 514.121 683.301 514.415 683.181C514.708 683.06 515.023 682.999 515.34 683H554.69C555.009 682.997 555.325 683.058 555.62 683.178C555.915 683.297 556.184 683.474 556.411 683.698C556.637 683.922 556.818 684.189 556.941 684.482C557.065 684.776 557.129 685.091 557.13 685.41V685.41Z" stroke="#CCDDE2" stroke-width="3.7" stroke-miterlimit="10"/>
<path d="M609 685.41V704.93C609.003 705.249 608.942 705.565 608.823 705.86C608.703 706.155 608.526 706.424 608.302 706.651C608.078 706.877 607.811 707.058 607.518 707.181C607.224 707.305 606.909 707.369 606.59 707.37H567.27C566.949 707.371 566.631 707.309 566.335 707.187C566.038 707.065 565.769 706.885 565.542 706.658C565.315 706.432 565.135 706.162 565.013 705.865C564.891 705.569 564.829 705.251 564.83 704.93V685.41C564.831 685.091 564.896 684.776 565.019 684.482C565.142 684.189 565.323 683.922 565.549 683.698C565.776 683.474 566.045 683.297 566.34 683.178C566.635 683.058 566.951 682.997 567.27 683H606.63C607.262 683.011 607.865 683.269 608.308 683.72C608.752 684.171 609 684.778 609 685.41V685.41Z" stroke="#CCDDE2" stroke-width="3.7" stroke-miterlimit="10"/>
<path d="M480.68 719.51V739.05C480.675 739.694 480.415 740.309 479.958 740.763C479.501 741.216 478.884 741.47 478.24 741.47H438.88C438.236 741.47 437.619 741.216 437.162 740.763C436.705 740.309 436.445 739.694 436.44 739.05V719.51C436.448 718.868 436.708 718.255 437.165 717.804C437.622 717.353 438.238 717.1 438.88 717.1H478.24C478.882 717.1 479.498 717.353 479.955 717.804C480.412 718.255 480.672 718.868 480.68 719.51V719.51Z" stroke="#CCDDE2" stroke-width="3.7" stroke-miterlimit="10"/>
<path d="M530 717.1H490.61C489.279 717.1 488.2 718.179 488.2 719.51V739.06C488.2 740.391 489.279 741.47 490.61 741.47H530C531.331 741.47 532.41 740.391 532.41 739.06V719.51C532.41 718.179 531.331 717.1 530 717.1Z" stroke="#CCDDE2" stroke-width="3.7" stroke-miterlimit="10"/>
<path d="M645.48 492.24C645.469 495.281 644.256 498.193 642.105 500.342C639.954 502.491 637.041 503.702 634 503.71H420.55C417.509 503.707 414.593 502.498 412.442 500.348C410.292 498.197 409.083 495.281 409.08 492.24C409.091 489.201 410.302 486.29 412.451 484.141C414.6 481.992 417.511 480.781 420.55 480.77H634C635.507 480.767 637.001 481.062 638.394 481.638C639.787 482.213 641.054 483.058 642.12 484.123C643.186 485.189 644.032 486.454 644.609 487.847C645.185 489.24 645.481 490.733 645.48 492.24V492.24Z" stroke="#CCDDE2" stroke-width="3.7" stroke-miterlimit="10"/>
<path d="M602.56 787.47H451.41C447.826 787.47 444.92 790.376 444.92 793.96V794.21C444.92 797.794 447.826 800.7 451.41 800.7H602.56C606.144 800.7 609.05 797.794 609.05 794.21V793.96C609.05 790.376 606.144 787.47 602.56 787.47Z" stroke="#CCDDE2" stroke-width="3.7" stroke-miterlimit="10"/>
<path d="M602.56 814.77H451.41C447.826 814.77 444.92 817.676 444.92 821.26V821.51C444.92 825.094 447.826 828 451.41 828H602.56C606.144 828 609.05 825.094 609.05 821.51V821.26C609.05 817.676 606.144 814.77 602.56 814.77Z" stroke="#CCDDE2" stroke-width="3.7" stroke-miterlimit="10"/>
<path d="M602.56 842.07H451.41C447.826 842.07 444.92 844.976 444.92 848.56V848.81C444.92 852.394 447.826 855.3 451.41 855.3H602.56C606.144 855.3 609.05 852.394 609.05 848.81V848.56C609.05 844.976 606.144 842.07 602.56 842.07Z" stroke="#CCDDE2" stroke-width="3.7" stroke-miterlimit="10"/>
<path d="M602.56 869.38H451.41C447.826 869.38 444.92 872.286 444.92 875.87V876.12C444.92 879.704 447.826 882.61 451.41 882.61H602.56C606.144 882.61 609.05 879.704 609.05 876.12V875.87C609.05 872.286 606.144 869.38 602.56 869.38Z" stroke="#CCDDE2" stroke-width="3.7" stroke-miterlimit="10"/>
<path d="M602.56 896.68H451.41C447.826 896.68 444.92 899.586 444.92 903.17V903.42C444.92 907.004 447.826 909.91 451.41 909.91H602.56C606.144 909.91 609.05 907.004 609.05 903.42V903.17C609.05 899.586 606.144 896.68 602.56 896.68Z" stroke="#CCDDE2" stroke-width="3.7" stroke-miterlimit="10"/>
<path d="M347.37 404H733.45C739.502 404 745.307 406.404 749.586 410.684C753.866 414.963 756.27 420.768 756.27 426.82V448.82H324.55V426.82C324.55 420.768 326.954 414.963 331.234 410.684C335.513 406.404 341.318 404 347.37 404V404Z" stroke="#CCDDE2" stroke-width="3.7" stroke-miterlimit="10"/>
<path d="M715.06 760.31H756.57V798.08H795.96V841.46H834.32V875.43H872.07V905.32H950V945.16H715.06V760.31Z" stroke="#CCDDE2" stroke-width="3.7" stroke-miterlimit="10"/>
<path d="M722.89 676.68H756.84H757.87L796.02 714.84L834.48 753.29L872.08 790.89L889.86 808.67" stroke="#CCDDE2" stroke-width="3.7" stroke-miterlimit="10"/>
<path d="M756.84 798.08V676.68" stroke="#CCDDE2" stroke-width="3.7" stroke-miterlimit="10"/>
<path d="M872.08 875.44V790.89" stroke="#CCDDE2" stroke-width="3.7" stroke-miterlimit="10"/>
<path d="M796.02 815.08V714.83" stroke="#CCDDE2" stroke-width="3.7" stroke-miterlimit="10"/>
<path d="M834.32 753.29V844.78" stroke="#CCDDE2" stroke-width="3.7" stroke-miterlimit="10"/>
<path d="M375.13 862.13V887.76" stroke="#CCDDE2" stroke-width="3.7" stroke-miterlimit="10"/>
<path d="M337.15 887.76V872C338.76 876.62 343.09 880.65 348.67 882.64C346.86 869.44 343.32 848.64 337.15 830.03" stroke="#CCDDE2" stroke-width="3.7" stroke-miterlimit="10"/>
<path d="M375.13 810.8V591H337.15V800.92" stroke="#CCDDE2" stroke-width="3.7" stroke-miterlimit="10"/>
<path d="M337.15 872.02V887.76" stroke="#CCDDE2" stroke-width="3.7" stroke-miterlimit="10"/>
<path d="M337.15 800.92V591H100.73V945.18H334.08H337.15" stroke="#CCDDE2" stroke-width="3.7" stroke-miterlimit="10"/>
<path d="M172.64 642.87V781.26C172.64 793.747 182.763 803.87 195.25 803.87H248.25C260.737 803.87 270.86 793.747 270.86 781.26V642.87C270.86 630.383 260.737 620.26 248.25 620.26H195.25C182.763 620.26 172.64 630.383 172.64 642.87Z" stroke="#CCDDE2" stroke-width="3.7" stroke-miterlimit="10"/>
<path d="M186.61 650.75V687.87C186.61 696.668 193.742 703.8 202.54 703.8H241.06C249.858 703.8 256.99 696.668 256.99 687.87V650.75C256.99 641.952 249.858 634.82 241.06 634.82H202.54C193.742 634.82 186.61 641.952 186.61 650.75Z" stroke="#CCDDE2" stroke-width="3.7" stroke-miterlimit="10"/>
<path d="M186.67 736.84V773.85C186.67 782.648 193.802 789.78 202.6 789.78H241C249.798 789.78 256.93 782.648 256.93 773.85V736.84C256.93 728.042 249.798 720.91 241 720.91H202.6C193.802 720.91 186.67 728.042 186.67 736.84Z" stroke="#CCDDE2" stroke-width="3.7" stroke-miterlimit="10"/>
<path d="M176.35 824.82H136.91C135.59 824.82 134.52 825.89 134.52 827.21V846.81C134.52 848.13 135.59 849.2 136.91 849.2H176.35C177.67 849.2 178.74 848.13 178.74 846.81V827.21C178.74 825.89 177.67 824.82 176.35 824.82Z" stroke="#CCDDE2" stroke-width="3.7" stroke-miterlimit="10"/>
<path d="M228.27 824.82H188.83C187.51 824.82 186.44 825.89 186.44 827.21V846.81C186.44 848.13 187.51 849.2 188.83 849.2H228.27C229.59 849.2 230.66 848.13 230.66 846.81V827.21C230.66 825.89 229.59 824.82 228.27 824.82Z" stroke="#CCDDE2" stroke-width="3.7" stroke-miterlimit="10"/>
<path d="M280.19 824.82H240.75C239.43 824.82 238.36 825.89 238.36 827.21V846.81C238.36 848.13 239.43 849.2 240.75 849.2H280.19C281.51 849.2 282.58 848.13 282.58 846.81V827.21C282.58 825.89 281.51 824.82 280.19 824.82Z" stroke="#CCDDE2" stroke-width="3.7" stroke-miterlimit="10"/>
<path d="M203.73 858.93H164.29C162.97 858.93 161.9 860 161.9 861.32V880.92C161.9 882.24 162.97 883.31 164.29 883.31H203.73C205.05 883.31 206.12 882.24 206.12 880.92V861.32C206.12 860 205.05 858.93 203.73 858.93Z" stroke="#CCDDE2" stroke-width="3.7" stroke-miterlimit="10"/>
<path d="M255.47 858.93H216.03C214.71 858.93 213.64 860 213.64 861.32V880.92C213.64 882.24 214.71 883.31 216.03 883.31H255.47C256.79 883.31 257.86 882.24 257.86 880.92V861.32C257.86 860 256.79 858.93 255.47 858.93Z" stroke="#CCDDE2" stroke-width="3.7" stroke-miterlimit="10"/>
<path d="M73.26 545.83H375.26V590.62H50V569.1C50.0026 562.931 52.4538 557.015 56.815 552.652C61.1762 548.289 67.091 545.835 73.26 545.83V545.83Z" stroke="#CCDDE2" stroke-width="3.7" stroke-miterlimit="10"/>
<path d="M356.5 840.06C358.57 838.38 360.97 836.83 362.63 834.98C367.29 829.77 365.5 823.11 368.49 817.39C372.13 810.39 383.57 805.54 394.82 806.18C393.754 809.471 393.024 812.862 392.64 816.3C392.31 819.36 393.11 822.76 392.23 825.73C390.8 830.49 383.16 833.38 382.23 838.27C381.41 842.59 386.47 846.63 385.63 851.03C384.74 855.75 377.49 858.36 374.82 862.53C372.64 865.93 373.67 869.81 372.54 873.42C371.17 877.78 366.43 881.63 360.22 883.42L359.6 883.6C357.319 881.643 355.362 879.338 353.8 876.77" stroke="#CCDDE2" stroke-width="3.7" stroke-miterlimit="10"/>
<path d="M388 811.66C371.23 828.77 363.34 864.84 360.27 883.44C360.02 885.01 359.79 886.44 359.6 887.75" stroke="#CCDDE2" stroke-width="3.7" stroke-miterlimit="10"/>
<path d="M389.5 898.23L381.78 941.37C381.566 942.58 380.933 943.677 379.991 944.467C379.049 945.257 377.859 945.69 376.63 945.69H336.3C335.059 945.69 333.858 945.248 332.913 944.443C331.968 943.639 331.339 942.525 331.14 941.3L324 898.23H389.5Z" stroke="#CCDDE2" stroke-width="3.7" stroke-miterlimit="10"/>
<path d="M396.83 893.42C396.722 894.73 396.125 895.952 395.158 896.844C394.191 897.735 392.925 898.229 391.61 898.23H322C320.697 898.231 319.441 897.745 318.477 896.869C317.514 895.992 316.912 894.787 316.79 893.49V893.49C316.72 892.764 316.803 892.031 317.033 891.338C317.263 890.645 317.636 890.009 318.126 889.468C318.617 888.928 319.214 888.496 319.882 888.2C320.549 887.904 321.27 887.751 322 887.75H391.57C392.298 887.745 393.018 887.891 393.686 888.18C394.354 888.468 394.954 888.893 395.449 889.426C395.944 889.96 396.322 890.59 396.56 891.278C396.798 891.965 396.89 892.695 396.83 893.42V893.42Z" stroke="#CCDDE2" stroke-width="3.7" stroke-miterlimit="10"/>
<path d="M337.15 872C337.033 871.672 336.932 871.338 336.85 871C335.74 866.82 336.73 862.29 334.64 858.37C332.07 853.54 325.13 850.52 324.25 845.04C323.47 839.96 328.33 835.26 327.52 830.25C326.64 824.6 319.3 821.25 317.91 815.72C317.08 812.3 317.84 808.35 317.54 804.8C317.168 800.84 316.458 796.919 315.42 793.08C323.72 792.51 332.12 795.7 337.15 800.88C338.658 802.376 339.869 804.144 340.72 806.09C343.59 812.7 341.88 820.42 346.36 826.46C348.8 829.73 352.85 832.17 354.93 835.59C355.626 836.707 356.114 837.94 356.37 839.23C356.38 839.324 356.397 839.418 356.42 839.51C356.47 839.69 356.49 839.86 356.52 840.01C357.27 845.07 355.34 850.55 355.96 855.76C356.52 860.08 358.86 864.41 357.52 868.63C356.581 871.468 355.334 874.194 353.8 876.76C352.556 878.971 351.026 881.009 349.25 882.82C349.05 882.77 348.87 882.69 348.67 882.62C346.86 869.42 343.32 848.62 337.15 830.01" stroke="#CCDDE2" stroke-width="3.7" stroke-miterlimit="10"/>
<path d="M349.33 887.74C349.15 886.2 348.92 884.52 348.67 882.66C346.86 869.46 343.32 848.66 337.15 830.05C333.26 818.2 328.3 807.19 322.04 799.49" stroke="#CCDDE2" stroke-width="3.7" stroke-miterlimit="10"/>
<path d="M346.36 826.49C346.36 826.49 347.47 809.27 356.76 804.03C366.05 798.79 365.85 828.15 365.85 828.15" stroke="#CCDDE2" stroke-width="3.7" stroke-miterlimit="10"/>
<path d="M356.5 840.06C355.451 833.524 355.94 826.834 357.93 820.52" stroke="#CCDDE2" stroke-width="3.7" stroke-miterlimit="10"/>
<path d="M496.42 517.89C497.71 519.288 498.455 521.104 498.519 523.005C498.583 524.906 497.962 526.768 496.77 528.25L473.66 568L472.85 576L465.66 648.25L454.24 763C454.17 763.73 454.02 764.46 453.89 765.19C453.82 765.77 453.74 766.35 453.64 766.93C453.49 767.68 453.31 768.39 453.14 769.11C452.97 769.83 452.86 770.3 452.68 770.88C452.5 771.46 452.26 772.26 452.01 772.94L451.4 774.65C451.13 775.33 450.85 775.98 450.57 776.65C450.29 777.32 450.04 777.74 449.77 778.29C449.5 778.84 449.14 779.55 448.77 780.15C448.4 780.75 448.16 781.21 447.84 781.71C447.52 782.21 447.11 782.89 446.7 783.47C446.29 784.05 446 784.47 445.65 784.93C444.89 785.93 444.14 786.87 443.31 787.77C442.88 788.27 442.43 788.77 441.98 789.25C441.53 789.73 440.98 790.18 440.52 790.64C440.06 791.1 439.61 791.49 439.13 791.89C438.65 792.29 438.13 792.75 437.58 793.15C437.03 793.55 436.58 793.93 436.07 794.28C435.56 794.63 434.98 795.04 434.43 795.42C433.88 795.8 433.35 796.09 432.8 796.42C432.25 796.75 431.66 797.08 431.09 797.42C430.52 797.76 429.93 798 429.33 798.27C428.73 798.54 428.17 798.85 427.57 799.1C426.97 799.35 426.28 799.61 425.63 799.83C424.98 800.05 424.47 800.28 423.89 800.46C422.79 800.81 421.66 801.11 420.52 801.37C419.87 801.52 419.24 801.64 418.59 801.74C417.94 801.84 417.33 801.99 416.68 802.1H416.78L425.7 821.1L434.05 821.18C431.355 821.563 428.628 821.68 425.91 821.53L439.13 849.72C441.253 854.24 442.2 859.224 441.884 864.208C441.568 869.192 439.999 874.015 437.322 878.231C434.646 882.448 430.948 885.92 426.572 888.327C422.197 890.734 417.284 891.997 412.29 892H396.29C395.671 892.001 395.058 892.125 394.486 892.363C393.914 892.602 393.395 892.951 392.959 893.39C392.522 893.829 392.177 894.351 391.942 894.924C391.707 895.497 391.587 896.111 391.59 896.73V899.07C397.051 900.921 401.678 904.652 404.644 909.597C407.611 914.542 408.724 920.38 407.786 926.07C406.848 931.76 403.919 936.932 399.523 940.663C395.126 944.394 389.547 946.442 383.78 946.442C378.013 946.442 372.434 944.394 368.037 940.663C363.641 936.932 360.712 931.76 359.774 926.07C358.836 920.38 359.949 914.542 362.916 909.597C365.882 904.652 370.509 900.921 375.97 899.07V896.73C375.971 896.109 375.85 895.494 375.614 894.921C375.377 894.347 375.03 893.825 374.591 893.386C374.153 892.947 373.632 892.598 373.059 892.36C372.485 892.122 371.871 892 371.25 892H194.7C194.079 892 193.465 892.122 192.891 892.36C192.318 892.598 191.797 892.947 191.359 893.386C190.92 893.825 190.573 894.347 190.336 894.921C190.1 895.494 189.979 896.109 189.98 896.73V899.07C195.45 900.921 200.084 904.656 203.056 909.607C206.028 914.558 207.145 920.404 206.206 926.102C205.268 931.799 202.336 936.979 197.934 940.716C193.531 944.453 187.945 946.504 182.17 946.504C176.395 946.504 170.809 944.453 166.406 940.716C162.004 936.979 159.072 931.799 158.134 926.102C157.195 920.404 158.312 914.558 161.284 909.607C164.256 904.656 168.89 900.921 174.36 899.07V896.73C174.36 895.475 173.862 894.272 172.975 893.385C172.088 892.498 170.884 892 169.63 892H142.19C140.927 891.997 139.694 891.619 138.646 890.916C137.597 890.212 136.781 889.214 136.3 888.046C135.818 886.879 135.693 885.596 135.941 884.358C136.188 883.119 136.797 881.982 137.69 881.09C138.28 880.498 138.981 880.028 139.754 879.709C140.526 879.39 141.354 879.227 142.19 879.23H406.54C409.877 879.226 413.159 878.383 416.083 876.777C419.008 875.17 421.481 872.854 423.275 870.04C425.068 867.226 426.124 864.006 426.345 860.677C426.566 857.348 425.946 854.016 424.54 850.99L401.81 801.94L174 783.52C173.826 783.479 173.648 783.453 173.47 783.44C172.47 783.34 171.47 783.21 170.47 783.04C170.134 782.997 169.8 782.937 169.47 782.86C168.34 782.66 167.26 782.41 166.17 782.13L165.24 781.86C164.24 781.55 163.24 781.23 162.24 780.86L161.46 780.56C160.55 780.21 159.65 779.81 158.77 779.38C158.397 779.224 158.033 779.047 157.68 778.85C156.88 778.45 156.08 778.02 155.3 777.54C148.736 773.683 143.294 768.178 139.513 761.571C135.731 754.964 133.741 747.483 133.74 739.87V641.12C133.742 630.586 137.542 620.406 144.442 612.447C151.343 604.488 160.882 599.284 171.31 597.79L456.66 556.79L484.77 517.86C485.52 517.067 486.424 516.436 487.427 516.006C488.43 515.576 489.51 515.356 490.601 515.358C491.693 515.361 492.772 515.587 493.772 516.023C494.773 516.458 495.674 517.093 496.42 517.89Z" fill="white"/>
<path d="M821.17 854.56C802.72 816.28 764.74 747.95 712.58 706.68L707.5 614.99C711.349 614.8 715.158 614.128 718.84 612.99C723.02 612.31 725.84 611.25 726.84 609.69C727.608 608.392 728.146 606.971 728.43 605.49C729.267 603.664 729.665 601.667 729.59 599.66C729.59 598.66 729.51 597.47 729.49 596.26C729.86 586.18 728.88 571.69 727.7 554.49C726.49 529.69 725.14 505.49 725.11 505.27V505.22C725.11 504.87 725.26 483.14 726.27 459.15C727.57 472.76 733.21 481.28 740.6 486.51C748.6 493.1 759.09 494.89 768.09 494.89C774.67 494.875 781.221 494.012 787.58 492.32C798.29 488.98 807.1 483.65 813.64 476.05C819.64 470.27 824.64 462.9 826.01 453.84C827.257 446.511 826.861 438.997 824.85 431.84C823.083 423.516 818.362 416.113 811.56 411C809.961 409.648 808.197 408.506 806.31 407.6V407.6C803.14 405.76 799.87 403.98 796.77 401.94C792.586 399.014 788.942 395.383 786 391.21C784.063 387.643 782.882 383.714 782.53 379.67C782.845 372.914 782.751 366.145 782.25 359.4C782.25 357.99 782.1 356.58 781.95 355.2C781.57 350.37 781.22 347.03 781.22 347.03C777.116 336.463 770.106 327.272 761 320.52C760.44 320.07 759.87 319.64 759.31 319.21C751.317 313.374 742.035 309.553 732.25 308.07C731.35 307.94 730.44 307.84 729.56 307.77C726.673 307.299 723.755 307.039 720.83 306.99C717.093 305.425 713.883 302.823 711.58 299.49C709.559 295.812 708.125 291.841 707.33 287.72C706.2 280.98 706.1 272.89 705.54 263.56C705.628 254.191 703.189 244.971 698.48 236.87C698.459 236.807 698.425 236.749 698.38 236.7C696.371 233.324 693.934 230.222 691.13 227.47C683.06 217.91 671.82 211.93 657.84 215.42C657.71 215.42 657.58 215.5 657.43 215.55C656.85 215.55 656.28 215.55 655.7 215.65C655.684 215.645 655.666 215.645 655.65 215.65C650.179 216.105 644.877 217.772 640.13 220.53C638.383 221.543 636.732 222.714 635.2 224.03C625.95 232.03 620.64 244.4 619.2 256.65C619.13 257.15 619.1 257.65 619.08 258.15C617.46 260.103 616.501 262.518 616.34 265.05C616.182 267.512 616.741 269.968 617.949 272.119C619.158 274.27 620.965 276.025 623.15 277.17V277.8C623.305 282.125 624.251 286.385 625.94 290.37C628.78 297.11 633.86 304.78 642.46 306.01C642.77 306.01 643.07 306.06 643.34 306.11L649.63 317.33L651.14 323.84L654.64 338.93L655.84 338.25C657.23 337.47 658.61 336.7 660.04 335.94L660.95 337.6C655.576 340.672 650.445 344.148 645.6 348C633.23 357.33 618.04 371.59 607.35 391.1C601.06 402.02 596.61 413.89 595.23 426.49C595.222 426.657 595.205 426.824 595.18 426.99C595 428.12 594.85 429.25 594.73 430.41V424.9C594.51 424.9 594.3 424.8 594.08 424.78V424.68C593.309 424.568 592.544 424.415 591.79 424.22L534.15 389.9C531.563 387.58 529.693 384.568 528.76 381.22C527.163 374.765 523.552 368.986 518.45 364.72C514.094 361.329 508.964 359.075 503.52 358.16C503.19 358.08 502.84 358.03 502.52 357.98C502.74 357.498 502.854 356.975 502.856 356.445C502.858 355.915 502.746 355.391 502.53 354.908C502.313 354.424 501.996 353.992 501.599 353.641C501.203 353.29 500.736 353.027 500.23 352.87L457.63 339.42C456.741 339.137 455.778 339.197 454.931 339.587C454.084 339.978 453.413 340.671 453.05 341.53L443.24 364.74C443.04 365.22 442.942 365.736 442.953 366.256C442.964 366.775 443.084 367.287 443.304 367.758C443.524 368.229 443.841 368.648 444.232 368.989C444.624 369.331 445.083 369.586 445.58 369.74L446.69 370.09V370.19L471.87 378L472.33 378.15C472.33 378.65 472.33 379.15 472.38 379.65C472.449 382.039 472.7 384.419 473.13 386.77C473.31 387.77 473.53 388.77 473.78 389.77C473.93 390.32 474.06 390.85 474.26 391.38L474.34 391.66C474.49 392.13 474.64 392.66 474.84 393.11C474.889 393.297 474.949 393.48 475.02 393.66V393.66C475.036 393.666 475.054 393.666 475.07 393.66C475.694 395.277 476.478 396.828 477.41 398.29C479.606 401.72 482.814 404.383 486.59 405.91C490.16 407.31 493.98 407.04 497.59 408.47C500.369 409.632 502.916 411.285 505.11 413.35L506.47 414.83C505.74 415.92 499.18 426.05 503.91 429.24L503.73 429.32L508.51 432.32L567.16 471.05C567.74 471.5 568.34 471.93 568.92 472.35L564.7 477C553.06 481.12 539.32 485.62 528.43 488.74C521.9 490.4 515.31 491.86 508.67 493.04C498.48 494.8 488.09 494.88 477.96 496.61C470.59 497.82 464.35 504.69 462.96 512.38C461.8 518.64 461.52 525.38 468.44 528.6C476.36 532.28 480.31 521.01 485.11 517.01C492.51 510.75 499.87 518.22 507.57 522.47C508.27 526.59 509.48 530.56 510.41 534.61C510.655 536.046 511.212 537.411 512.04 538.61C513.45 540.42 514.93 540.61 516.24 539.94L515.91 540.22C518.43 539.553 520.97 538.887 523.53 538.22C525.93 537.847 528.295 537.275 530.6 536.51C547.78 532.43 566.09 528.63 584.4 524.03H584.47C585.33 523.81 586.21 523.58 587.06 523.38C587.346 523.371 587.631 523.418 587.898 523.519C588.166 523.62 588.411 523.773 588.619 523.969C588.827 524.166 588.994 524.401 589.111 524.662C589.228 524.923 589.292 525.204 589.3 525.49C589.2 526.8 589.07 528.13 588.95 529.49C587.62 535.35 585.43 551.17 582.95 563.94C581.59 569.6 580.18 574.88 578.82 579.56C576.61 584.56 574.45 589.49 575.13 593.56C575.204 595.375 575.907 597.108 577.119 598.462C578.33 599.815 579.974 600.706 581.77 600.98L584.93 601.46C587.1 601.98 590.77 602.61 595.37 603.27C596 607.74 596.68 612.27 597.43 616.67L597.61 617.78C598.14 620.69 598.69 623.66 599.24 626.6V626.68V626.78L599.69 629.19L600.17 631.79L596.52 664.13L595.43 674L567.67 918.79L538.47 926.56L516.59 932.4C515.793 932.57 515.033 932.885 514.35 933.33C513.334 933.965 512.498 934.85 511.922 935.901C511.346 936.951 511.049 938.132 511.06 939.33C511.062 940.504 511.365 941.657 511.94 942.68C512.255 943.285 512.652 943.844 513.12 944.34C514.088 945.295 515.31 945.951 516.64 946.23C517.135 946.347 517.642 946.404 518.15 946.4H603.43L610.43 918.81L652.23 753.41L654.42 755.41C654.42 755.41 654.42 755.49 654.5 755.51V755.56L718.6 816.5L719.36 817.17L720.36 818.17L733.71 830.84L734.71 831.77L735.11 832.17C784.96 880.33 786.74 886.62 785.63 887.28H785L762 935C761.283 936.499 761.112 938.201 761.516 939.813C761.919 941.425 762.872 942.845 764.21 943.83L765.82 945.01C767.267 946.056 769.055 946.517 770.827 946.302C772.599 946.087 774.225 945.212 775.38 943.85L833.77 875.6C833.77 875.6 829.44 871.61 821.17 854.56ZM518 538.44C518.302 538.072 518.58 537.685 518.83 537.28C518.841 537.406 518.886 537.527 518.96 537.63L518 538.44ZM567.49 476C567.82 475.85 568.14 475.72 568.49 475.59L571.94 474.24L572.09 474.31C570.61 474.86 569.07 475.44 567.49 476ZM590.9 424C587.915 423.065 585.164 421.503 582.83 419.42L579.64 417.51L591.46 424.1C591.26 424.11 591.08 424.11 590.9 424.06V424Z" fill="white"/>
<path d="M575.16 474.91L573.42 474.26C573.296 474.194 573.175 474.121 573.06 474.04C563.97 468.16 556.87 459.86 550.8 451.04C544.4 441.73 522.44 432.15 515.34 423.33C510.79 417.75 506.03 411.33 499.06 408.55C495.47 407.14 491.63 407.41 488.06 405.99C484.281 404.472 481.074 401.807 478.89 398.37C477.943 396.905 477.149 395.347 476.52 393.72V393.72C476.443 393.535 476.38 393.344 476.33 393.15C476.095 392.586 475.905 392.004 475.76 391.41C475.57 390.87 475.43 390.35 475.29 389.8C475.016 388.813 474.799 387.812 474.64 386.8C474.267 384.54 474.03 382.259 473.93 379.97V379.86C473.85 377.54 473.88 375.26 473.99 373.03V372.97H473.88L463.67 369.38C462.261 368.914 461.004 368.077 460.033 366.955C459.061 365.834 458.41 364.471 458.15 363.01C458.011 362.196 458.038 361.363 458.23 360.56C458.463 359.5 458.925 358.503 459.583 357.639C460.241 356.776 461.079 356.066 462.04 355.56C462.927 355.09 463.903 354.808 464.904 354.732C465.906 354.656 466.912 354.789 467.86 355.12L488.41 362.58L492.63 364.1L492.74 364.16C492.74 364.16 492.74 357.9 498.74 358.03C504.29 358.17 524.4 359.8 530.36 381.79C531.29 385.134 533.161 388.139 535.75 390.45L584.33 419.54C587.633 422.533 591.777 424.436 596.2 424.99V431.16C596.194 431.166 596.188 431.173 596.185 431.18C596.181 431.188 596.18 431.197 596.18 431.205C596.18 431.214 596.181 431.222 596.185 431.23C596.188 431.237 596.194 431.244 596.2 431.25V435.74L600.06 462.79L602.78 481.7C599.231 481.989 595.66 481.862 592.14 481.32L589.83 480.45H589.77L575.16 474.91Z" fill="white"/>
<path d="M595.56 430.84V430.92C594.41 441.05 593.27 452.81 592.37 465.82C585.89 468.82 579.28 471.42 572.78 474.01C572.656 473.944 572.535 473.87 572.42 473.79C568.003 470.889 563.948 467.471 560.34 463.61L505.2 429.39C508.612 427.663 511.652 425.285 514.15 422.39L514.32 422.22C524.71 411.06 533.72 392.22 534.84 389.86L535.08 390.11L583.66 419.2C586.963 422.19 591.108 424.09 595.53 424.64L595.56 430.84Z" fill="#2E2E2E"/>
<path d="M497.75 373.44L496.64 376.44L495.58 379.35L495 381L494.92 381.25L494.81 381.55C494.549 382.3 494.001 382.915 493.287 383.262C492.573 383.609 491.751 383.658 491 383.4L473.42 378H473.34L448.08 370.24L454.64 354.73L457.53 347.9C457.898 347.041 458.574 346.349 459.424 345.961C460.275 345.573 461.239 345.515 462.13 345.8L496.94 356.8C495.812 356.542 494.665 356.378 493.51 356.31C492.69 356.261 491.869 356.394 491.106 356.7C490.344 357.006 489.659 357.477 489.1 358.08C488.571 358.681 488.19 359.397 487.987 360.171C487.784 360.946 487.764 361.757 487.93 362.54C488.451 364.549 489.485 366.389 490.93 367.88C491.07 368.04 491.21 368.18 491.37 368.34C492.663 369.773 494.159 371.01 495.81 372.01C495.81 372.01 495.86 372.01 495.92 372.09C495.98 372.17 495.92 372.09 495.92 372.09C496.498 372.582 497.11 373.033 497.75 373.44V373.44Z" fill="#5B96F5"/>
<path d="M473.8 378C473.8 378.54 473.8 379.12 473.86 379.66C473.932 382.053 474.186 384.436 474.62 386.79C474.78 387.801 474.997 388.803 475.27 389.79C475.41 390.33 475.54 390.85 475.73 391.39C475.92 391.93 476.12 392.59 476.36 393.19C476.437 393.412 476.527 393.629 476.63 393.84" stroke="black" stroke-width="3.7" stroke-miterlimit="10"/>
<path d="M505.75 375.45C504.75 375.29 503.75 375.1 502.75 374.85C501.75 374.6 501.01 374.33 500.17 374.01C498.831 373.489 497.545 372.839 496.33 372.07C496.33 372.07 496.25 372.07 496.22 371.99C494.392 370.874 492.75 369.481 491.35 367.86C489.903 366.371 488.869 364.531 488.35 362.52C488.167 361.737 488.178 360.922 488.381 360.145C488.585 359.367 488.976 358.652 489.52 358.06C490.079 357.459 490.765 356.988 491.527 356.682C492.289 356.376 493.11 356.242 493.93 356.29C495.469 356.412 496.997 356.649 498.5 357C500.65 357.38 502.8 357.73 504.93 358.17C510.373 359.098 515.504 361.351 519.87 364.73C524.961 369.001 528.57 374.773 530.18 381.22C531.1 384.566 532.96 387.579 535.54 389.9L596.17 426" stroke="black" stroke-width="3.7" stroke-miterlimit="10"/>
<path d="M473.87 379.65C473.87 379.65 475.81 390.56 490.98 390.26C492.156 390.217 493.29 389.815 494.23 389.108C495.171 388.401 495.872 387.423 496.24 386.306C496.608 385.189 496.625 383.985 496.289 382.858C495.953 381.731 495.28 380.733 494.36 380L494.16 379.85" stroke="black" stroke-width="3.7" stroke-miterlimit="10"/>
<path d="M476.31 393.1C476.31 393.1 483.74 400.83 491.15 397.49C497.7 394.49 493.22 388.62 493.22 388.62" stroke="black" stroke-width="3.7" stroke-miterlimit="10"/>
<path d="M496.58 379.5L496.04 379.34" stroke="black" stroke-width="3.7" stroke-miterlimit="10"/>
<path d="M418.14 802.08C414.987 802.531 411.793 802.622 408.62 802.35L403.62 801.95L418.14 802.08Z" fill="#D7E8F0"/>
<path d="M474.34 576.05L455.69 763.05C454.712 772.822 450.477 781.981 443.664 789.055C436.852 796.128 427.858 800.706 418.13 802.05C414.977 802.501 411.783 802.592 408.61 802.32L403.61 801.92L175.44 783.49C168.828 782.974 162.423 780.945 156.72 777.56C153.962 771.762 152.537 765.42 152.55 759V754.65L362.18 771.65L367.18 772.06C370.354 772.322 373.546 772.231 376.7 771.79C386.426 770.44 395.417 765.862 402.228 758.789C409.04 751.716 413.277 742.56 414.26 732.79L429.26 582.64L474.34 576.05Z" fill="#5B96F5"/>
<path d="M429.24 582.53L414.24 732.68C413.257 742.45 409.02 751.606 402.208 758.679C395.397 765.752 386.406 770.33 376.68 771.68C373.526 772.121 370.334 772.212 367.16 771.95L362.16 771.54L152.53 754.54V660.23C152.535 649.695 156.333 639.514 163.231 631.552C170.129 623.589 179.664 618.377 190.09 616.87L429.24 582.53Z" fill="#D7E8F0"/>
<path d="M435.54 821.19C432.384 821.641 429.187 821.732 426.01 821.46L421.01 821.06L435.54 821.19Z" fill="#D7E8F0"/>
<path d="M418.26 802.08L440.62 849.74C442.738 854.26 443.682 859.242 443.363 864.224C443.044 869.206 441.474 874.027 438.797 878.241C436.119 882.455 432.422 885.925 428.048 888.33C423.673 890.735 418.762 891.997 413.77 892H397.77C397.151 891.999 396.537 892.12 395.964 892.356C395.392 892.592 394.871 892.938 394.433 893.376C393.995 893.813 393.647 894.333 393.409 894.905C393.172 895.477 393.05 896.091 393.05 896.71V919.95C393.05 922.021 392.227 924.008 390.763 925.473C389.298 926.937 387.311 927.76 385.24 927.76C383.169 927.76 381.182 926.937 379.717 925.473C378.253 924.008 377.43 922.021 377.43 919.95V896.7C377.431 896.08 377.31 895.466 377.073 894.894C376.836 894.321 376.489 893.801 376.05 893.363C375.611 892.925 375.09 892.579 374.517 892.343C373.944 892.107 373.33 891.987 372.71 891.99H196.17C195.551 891.989 194.938 892.11 194.366 892.346C193.794 892.582 193.274 892.929 192.837 893.367C192.399 893.804 192.052 894.324 191.816 894.896C191.58 895.468 191.459 896.081 191.46 896.7V919.94C191.388 921.964 190.533 923.881 189.075 925.288C187.617 926.694 185.671 927.48 183.645 927.48C181.619 927.48 179.673 926.694 178.215 925.288C176.757 923.881 175.902 921.964 175.83 919.94V896.7C175.831 896.081 175.71 895.468 175.474 894.896C175.238 894.324 174.891 893.804 174.453 893.367C174.016 892.929 173.496 892.582 172.924 892.346C172.352 892.11 171.739 891.989 171.12 891.99H143.68C142.028 891.925 140.465 891.222 139.319 890.03C138.173 888.838 137.533 887.249 137.533 885.595C137.533 883.941 138.173 882.352 139.319 881.16C140.465 879.968 142.028 879.265 143.68 879.2H408C411.332 879.196 414.61 878.353 417.531 876.75C420.453 875.147 422.924 872.834 424.716 870.025C426.509 867.216 427.567 864.002 427.791 860.677C428.015 857.352 427.399 854.024 426 851L403.27 802" fill="#2E2E2E"/>
<path d="M408.61 802.35L175.44 783.5C164.473 782.616 154.242 777.634 146.782 769.548C139.322 761.461 135.18 750.862 135.18 739.86V641.12C135.183 630.587 138.982 620.408 145.88 612.448C152.779 604.488 162.314 599.281 172.74 597.78L458.08 556.78L486.21 517.83C486.963 517.034 487.872 516.401 488.88 515.97C489.888 515.54 490.974 515.321 492.07 515.327C493.166 515.334 494.249 515.566 495.252 516.008C496.255 516.451 497.156 517.095 497.9 517.9V517.9C499.18 519.303 499.919 521.116 499.985 523.014C500.051 524.912 499.439 526.772 498.26 528.26L475.12 568.05L455.71 763.05C454.571 774.464 448.999 784.976 440.191 792.325C431.383 799.674 420.044 803.274 408.61 802.35V802.35Z" stroke="black" stroke-width="3.7" stroke-miterlimit="10"/>
<path d="M409.63 922.07C409.639 926.548 408.413 930.941 406.086 934.767C403.76 938.592 400.423 941.702 396.443 943.754C392.463 945.806 387.995 946.72 383.529 946.396C379.063 946.072 374.773 944.522 371.131 941.918C367.489 939.313 364.636 935.754 362.886 931.633C361.136 927.511 360.557 922.987 361.212 918.557C361.867 914.128 363.732 909.965 366.6 906.527C369.469 903.089 373.23 900.509 377.47 899.07V919.95C377.47 922.021 378.293 924.008 379.758 925.473C381.222 926.937 383.209 927.76 385.28 927.76C387.351 927.76 389.338 926.937 390.802 925.473C392.267 924.008 393.09 922.021 393.09 919.95V899.06C397.911 900.678 402.101 903.77 405.069 907.899C408.037 912.028 409.632 916.985 409.63 922.07V922.07Z" stroke="black" stroke-width="3.7" stroke-miterlimit="10"/>
<path d="M208 922.07C208.008 926.546 206.782 930.938 204.455 934.762C202.128 938.586 198.792 941.695 194.812 943.745C190.833 945.795 186.365 946.707 181.901 946.381C177.436 946.056 173.148 944.505 169.508 941.899C165.868 939.294 163.018 935.735 161.27 931.613C159.523 927.492 158.946 922.969 159.604 918.541C160.262 914.113 162.128 909.953 164.998 906.518C167.868 903.082 171.63 900.505 175.87 899.07V919.95C175.873 922.022 176.698 924.009 178.164 925.473C179.63 926.938 181.618 927.76 183.69 927.76C185.761 927.76 187.748 926.937 189.213 925.473C190.677 924.008 191.5 922.021 191.5 919.95V899.06C196.316 900.681 200.5 903.775 203.461 907.904C206.422 912.033 208.01 916.989 208 922.07V922.07Z" stroke="black" stroke-width="3.7" stroke-miterlimit="10"/>
<path d="M418.26 802.08L440.62 849.74C442.738 854.26 443.682 859.242 443.363 864.224C443.044 869.206 441.474 874.027 438.797 878.241C436.119 882.455 432.422 885.925 428.048 888.33C423.673 890.735 418.762 891.997 413.77 892H397.77C397.151 891.999 396.537 892.12 395.964 892.356C395.392 892.592 394.871 892.938 394.433 893.376C393.995 893.813 393.647 894.333 393.409 894.905C393.172 895.477 393.05 896.091 393.05 896.71V919.95C393.05 922.021 392.227 924.008 390.763 925.473C389.298 926.937 387.311 927.76 385.24 927.76C383.169 927.76 381.182 926.937 379.717 925.473C378.253 924.008 377.43 922.021 377.43 919.95V896.7C377.431 896.08 377.31 895.466 377.073 894.894C376.836 894.321 376.489 893.801 376.05 893.363C375.611 892.925 375.09 892.579 374.517 892.343C373.944 892.107 373.33 891.987 372.71 891.99H196.17C195.551 891.989 194.938 892.11 194.366 892.346C193.794 892.582 193.274 892.929 192.837 893.367C192.399 893.804 192.052 894.324 191.816 894.896C191.58 895.468 191.459 896.081 191.46 896.7V919.94C191.388 921.964 190.533 923.881 189.075 925.288C187.617 926.694 185.671 927.48 183.645 927.48C181.619 927.48 179.673 926.694 178.215 925.288C176.757 923.881 175.902 921.964 175.83 919.94V896.7C175.831 896.081 175.71 895.468 175.474 894.896C175.238 894.324 174.891 893.804 174.453 893.367C174.016 892.929 173.496 892.582 172.924 892.346C172.352 892.11 171.739 891.989 171.12 891.99H143.68C142.028 891.925 140.465 891.222 139.319 890.03C138.173 888.838 137.533 887.249 137.533 885.595C137.533 883.941 138.173 882.352 139.319 881.16C140.465 879.968 142.028 879.265 143.68 879.2H408C411.332 879.196 414.61 878.353 417.531 876.75C420.453 875.147 422.924 872.834 424.716 870.025C426.509 867.216 427.567 864.002 427.791 860.677C428.015 857.352 427.399 854.024 426 851L403.27 802" stroke="black" stroke-width="3.7" stroke-miterlimit="10"/>
<path d="M498.32 373.16L496 379.34L495.37 381L495.18 381.55C494.919 382.286 494.381 382.891 493.68 383.236C492.98 383.581 492.173 383.64 491.43 383.4L473.8 378L447 369.76C446.503 369.606 446.044 369.351 445.653 369.009C445.261 368.668 444.944 368.248 444.724 367.778C444.504 367.307 444.384 366.795 444.373 366.276C444.362 365.756 444.46 365.24 444.66 364.76L454.46 341.54C454.83 340.682 455.506 339.992 456.356 339.604C457.206 339.216 458.169 339.158 459.06 339.44L501.65 352.89C502.159 353.044 502.629 353.305 503.029 353.654C503.43 354.004 503.752 354.434 503.974 354.917C504.196 355.4 504.313 355.924 504.317 356.456C504.322 356.987 504.214 357.513 504 358" stroke="black" stroke-width="3.7" stroke-miterlimit="10"/>
<path d="M489.5 360.61L451.59 348.34" stroke="black" stroke-width="3.7" stroke-miterlimit="10"/>
<path d="M535.58 389.9C535.58 389.9 521 421.61 506.87 429.14C506.767 429.191 506.679 429.269 506.616 429.365C506.553 429.461 506.517 429.572 506.51 429.687C506.504 429.802 506.529 429.917 506.581 430.019C506.634 430.122 506.713 430.208 506.81 430.27L573.06 474" stroke="black" stroke-width="3.7" stroke-miterlimit="10"/>
<path d="M508 414.8C508 414.8 499.82 426.72 505.86 429.64" stroke="black" stroke-width="3.7" stroke-miterlimit="10"/>
<path d="M512.53 492.6C512.53 492.6 509.18 492.75 515.9 501.21C522.62 509.67 524.9 525.77 520.33 537.28C520.33 537.28 520.13 540.28 532.09 536.54C544.05 532.8 586 524.05 586 524.05C586 524.05 592.55 520.6 590.52 529.34C588.49 538.08 584.52 570.23 580.37 579.5C576.22 588.77 572.18 597.96 586.46 601.44C600.74 604.92 678.64 612.24 678.64 612.24C678.64 612.24 731.64 623.99 731.08 599.65C730.52 575.31 726.63 505.24 726.63 505.24C726.63 505.24 726.95 451.15 730.52 419.17C730.52 419.17 739.84 337.92 712.13 330.41C684.42 322.9 675.01 330.89 667.98 334.68C660.95 338.47 598.98 370.86 595.6 437.68C595.6 437.68 595.37 463.5 590.14 467.35C584.91 471.2 523.71 492.37 512.53 492.6Z" fill="#2E2E2E"/>
<path d="M611.87 918.79L604.87 946.38H519.64C517.769 946.367 515.977 945.629 514.64 944.32C513.746 943.422 513.108 942.301 512.794 941.074C512.48 939.846 512.5 938.556 512.853 937.339C513.207 936.122 513.88 935.022 514.802 934.154C515.725 933.285 516.864 932.679 518.1 932.4L569.18 918.79C569.18 918.79 598.75 929.18 611.87 918.79Z" fill="#2E2E2E"/>
<path d="M710.91 613.77C710.26 613.77 709.58 613.83 708.91 613.83C706.243 631.05 703.277 648.213 700.01 665.32C661.83 656.77 609.08 671.93 609.08 671.93L610.19 677.93C601.49 678.4 598.82 675.19 598.82 675.19L596.9 674L601.69 631.73L600.77 626.73V626.57C600.2 623.63 599.66 620.66 599.14 617.72L598.95 616.64C598.19 612.09 597.48 607.52 596.85 602.97L597.48 603.06C597.7 603.06 597.91 603.14 598.16 603.16L598.7 603.25C599.17 603.3 599.63 603.38 600.09 603.44C601.09 603.57 602.38 603.76 603.82 603.98C604.39 603.98 604.99 604.12 605.62 604.23C627.3 607.24 683.78 614.59 710.91 613.77Z" fill="#5B96F5"/>
<path d="M653.81 752.87L653.68 753.39L611.87 918.79L604.87 946.38H519.64C517.769 946.367 515.977 945.628 514.64 944.32C513.746 943.421 513.109 942.299 512.795 941.071C512.481 939.843 512.502 938.553 512.855 937.336C513.208 936.118 513.881 935.017 514.803 934.148C515.726 933.278 516.864 932.671 518.1 932.39L569.18 918.79L596.9 674L601.69 631.73" stroke="black" stroke-width="3.7" stroke-miterlimit="10"/>
<path d="M522.52 524.77C519.52 524.91 517.84 524.94 517.84 524.94C514.84 525.15 511.93 524.01 509.05 522.46C501.35 518.21 493.97 510.76 486.57 517.02C481.78 521.02 477.83 532.28 469.91 528.61C463 525.4 463.27 518.61 464.41 512.39C465.83 504.69 472.06 497.83 479.41 496.6C489.53 494.89 499.93 494.81 510.11 493.04C530.615 489.291 550.683 483.454 570 475.62C591.45 467.07 614.85 458.26 630.69 440.7C649.5 419.91 661.45 392.7 667.98 365.64" stroke="black" stroke-width="3.7" stroke-miterlimit="10"/>
<path d="M628.43 253.84C628.43 253.84 630.3 222.71 659.36 215.42C688.42 208.13 705.76 241.89 707.07 263.56C708.38 285.23 707.07 300.18 722.34 307C722.34 307 766.47 306.46 782.73 347C782.73 347 784.93 366.87 784.03 379.66C783.13 392.45 799.09 403.66 807.78 407.6C816.47 411.54 831.59 427.6 827.48 453.83C823.37 480.06 789.06 492.29 789.06 492.29C789.06 492.29 759.74 500.97 742.06 486.48C723.29 471.11 728.6 443 728.6 443C728.6 443 738.73 351.58 720.29 336.56C710.14 328.29 705.53 329.04 698.36 324.68C690.81 320.09 688.11 318.68 685.58 315.45C680.66 309.12 671.94 299.56 678.25 277.01C684.56 254.46 678.25 265.83 672.25 262.65C672.25 262.65 664.89 251.29 653.78 259.32C642.67 267.35 645.38 247.76 645.38 247.76L640.5 254.32C640.5 254.32 632.87 255.85 628.43 253.84Z" fill="#5B96F5"/>
<path d="M621.59 264.6C621.32 250.07 626.74 233.75 638.03 224.07C639.562 222.75 641.209 221.569 642.95 220.54C655.15 213.33 672.1 213.98 684.24 220.99C690.696 224.824 696.082 230.224 699.9 236.69L700 236.87C704.704 244.973 707.146 254.191 707.07 263.56C707.13 275.74 707.2 292.27 715.02 302.38C719.96 308.78 726.53 306.98 733.76 308.07C743.55 309.541 752.836 313.367 760.82 319.22C771.6 327.15 780.58 338.98 783.06 352.34C785.45 365.2 780.78 379.7 787.71 391.59C792.79 400.28 802.45 404.25 810.63 409.32C827.05 419.62 830.43 439.58 825.23 457.14C819.81 475.45 807.07 486.7 789.06 492.31C789.06 492.31 728.2 507.31 727.45 453.97" stroke="black" stroke-width="3.7" stroke-miterlimit="10"/>
<path d="M644.53 246.84C643.9 251.12 641.3 255.07 636.67 256.25C631.45 257.58 628.67 262.66 627.21 267.77C625.121 275.267 625.661 283.253 628.74 290.4C631.59 297.12 636.68 304.8 645.28 306.03C661.02 308.27 668.85 301.64 668.85 301.64" stroke="black" stroke-width="3.7" stroke-miterlimit="10"/>
<path d="M657.64 269.71C659.137 269.71 660.35 268.497 660.35 267C660.35 265.503 659.137 264.29 657.64 264.29C656.143 264.29 654.93 265.503 654.93 267C654.93 268.497 656.143 269.71 657.64 269.71Z" fill="black"/>
<path d="M633.87 267.93C635.367 267.93 636.58 266.717 636.58 265.22C636.58 263.723 635.367 262.51 633.87 262.51C632.373 262.51 631.16 263.723 631.16 265.22C631.16 266.717 632.373 267.93 633.87 267.93Z" fill="black"/>
<path d="M644.53 246.84C643.934 249.412 644.027 252.096 644.8 254.62C644.919 255.029 645.073 255.427 645.26 255.81C647.14 260.22 651.51 263.74 659.26 263.3C676.09 262.37 682.09 261.3 680.72 269.03C680.152 271.766 679.336 274.443 678.28 277.03C676.43 281.94 675.14 290.37 677.04 299.55C679.23 310.28 684.43 321.24 701.96 327.34" stroke="black" stroke-width="3.7" stroke-miterlimit="10"/>
<path d="M646 267.66C646 267.66 643.16 278.04 643.45 279.57C643.74 281.1 647.37 279.91 647.37 279.91" stroke="black" stroke-width="3.7" stroke-miterlimit="10"/>
<path d="M648 289.42C653.43 292.35 659.73 290.5 662.19 285.6" stroke="black" stroke-width="3.7" stroke-miterlimit="10"/>
<path d="M670.947 277.773C675.617 272.825 675.295 264.936 670.227 260.151C665.159 255.367 657.264 255.499 652.593 260.447C647.922 265.395 648.244 273.284 653.313 278.069C658.381 282.853 666.276 282.721 670.947 277.773Z" stroke="black" stroke-width="3.7" stroke-miterlimit="10"/>
<path d="M639.418 274.879C644.089 269.932 643.767 262.042 638.698 257.258C633.63 252.473 625.735 252.606 621.064 257.553C616.394 262.501 616.716 270.391 621.784 275.175C626.852 279.96 634.747 279.827 639.418 274.879Z" stroke="black" stroke-width="3.7" stroke-miterlimit="10"/>
<path d="M630 257.58C630.27 257.565 630.54 257.565 630.81 257.58C633.118 257.794 635.252 258.898 636.76 260.658C638.269 262.418 639.032 264.697 638.89 267.01C638.762 269.134 637.823 271.128 636.267 272.579C634.711 274.031 632.658 274.829 630.53 274.81C630.26 274.81 629.99 274.81 629.72 274.81C627.414 274.591 625.283 273.486 623.775 271.727C622.268 269.968 621.503 267.693 621.64 265.38C621.768 263.256 622.707 261.263 624.263 259.811C625.818 258.36 627.872 257.561 630 257.58V257.58ZM630 255.73C627.405 255.717 624.904 256.695 623.006 258.464C621.109 260.234 619.958 262.661 619.79 265.25C619.619 268.045 620.542 270.797 622.364 272.925C624.185 275.052 626.762 276.388 629.55 276.65C629.88 276.65 630.21 276.7 630.55 276.7C633.145 276.711 635.647 275.73 637.544 273.959C639.442 272.188 640.592 269.76 640.76 267.17C640.928 264.375 640.004 261.625 638.184 259.498C636.363 257.371 633.787 256.035 631 255.77C630.67 255.77 630.34 255.77 630 255.77V255.73Z" fill="white"/>
<path d="M649.31 267.96L642.69 267.35" stroke="black" stroke-width="3.7" stroke-miterlimit="10"/>
<path d="M661.49 260.21H662.32C664.698 260.434 666.896 261.573 668.45 263.386C670.004 265.2 670.793 267.546 670.65 269.93C670.507 272.112 669.534 274.157 667.931 275.645C666.328 277.132 664.217 277.95 662.03 277.93C661.75 277.93 661.48 277.93 661.2 277.93C658.822 277.706 656.624 276.567 655.07 274.754C653.516 272.94 652.727 270.594 652.87 268.21C653.011 266.027 653.983 263.981 655.586 262.493C657.19 261.005 659.302 260.188 661.49 260.21ZM661.49 258.36C658.826 258.342 656.257 259.342 654.306 261.157C652.356 262.971 651.173 265.462 651 268.12C650.826 270.984 651.772 273.803 653.638 275.982C655.504 278.161 658.144 279.53 661 279.8C661.34 279.8 661.67 279.85 662 279.85C664.66 279.861 667.224 278.856 669.168 277.04C671.112 275.224 672.289 272.735 672.46 270.08C672.649 267.213 671.708 264.385 669.84 262.203C667.971 260.02 665.322 258.655 662.46 258.4C662.12 258.4 661.79 258.4 661.46 258.4L661.49 258.36Z" fill="white"/>
<path d="M638.117 273.651C642.124 269.406 641.846 262.636 637.497 258.53C633.148 254.424 626.373 254.537 622.366 258.782C618.359 263.027 618.636 269.797 622.985 273.903C627.335 278.009 634.109 277.896 638.117 273.651Z" fill="#5B96F5"/>
<path d="M669.691 276.574C673.717 272.309 673.439 265.508 669.069 261.383C664.7 257.258 657.894 257.372 653.868 261.637C649.841 265.902 650.12 272.703 654.489 276.828C658.859 280.953 665.665 280.839 669.691 276.574Z" fill="#5B96F5"/>
<path d="M657.64 339.79L653.96 323.87L649.96 306.7" stroke="black" stroke-width="3.7" stroke-miterlimit="10"/>
<path d="M835.27 875.64L776.89 943.89C775.734 945.25 774.107 946.124 772.335 946.337C770.563 946.55 768.776 946.087 767.33 945.04L765.73 943.87C764.388 942.891 763.43 941.473 763.023 939.863C762.615 938.252 762.784 936.549 763.5 935.05L786.44 887.31C786.44 887.31 822.94 888.36 822.64 854.53C830.91 871.62 835.27 875.64 835.27 875.64Z" fill="#2E2E2E"/>
<path d="M736.61 832.21L736.2 831.8L720.85 817.21L720.11 816.53L655.99 755.53V755.47L655.9 755.39L653.73 753.39L634.24 734.86C623.567 724.696 616.384 711.416 613.72 696.92L610.19 678L609.07 672L601.69 631.83L600.77 626.83V626.67C600.2 623.73 599.66 620.76 599.14 617.82L598.95 616.74" stroke="black" stroke-width="3.7" stroke-miterlimit="10"/>
<path d="M596.82 603C597.45 607.55 598.16 612.12 598.92 616.67L599.11 617.75C599.63 620.69 600.17 623.66 600.74 626.6V626.76" stroke="black" stroke-width="3.7" stroke-linejoin="round"/>
<path d="M655.84 755.43L655.92 755.51L655.98 755.57" stroke="black" stroke-width="3.7" stroke-linejoin="round"/>
<path d="M720.1 816.53L720.84 817.21C726.387 822.41 731.503 827.273 736.19 831.8L736.59 832.21C798.08 891.62 786.43 887.31 786.43 887.31L763.48 935.05C762.767 936.551 762.601 938.253 763.01 939.864C763.419 941.474 764.377 942.891 765.72 943.87L767.32 945.04C768.766 946.087 770.553 946.55 772.325 946.337C774.097 946.123 775.724 945.25 776.88 943.89L835.25 875.64C835.25 875.64 830.9 871.64 822.63 854.53C802.76 813.35 760.33 737.36 701.92 697.76C699.746 696.301 698.053 694.231 697.054 691.81C696.056 689.389 695.797 686.727 696.31 684.16C697.43 678.74 698.49 673.32 699.53 667.88C699.69 667.04 699.85 666.19 699.99 665.35C703.25 648.23 706.217 631.067 708.89 613.86" stroke="black" stroke-width="3.7" stroke-linejoin="round"/>
<path d="M593 466.07C593.9 453.07 595 441.3 596.19 431.07C596.35 429.52 596.54 427.99 596.7 426.49C599.14 404.2 611.23 384.08 626.1 367.77C640.8 351.65 659.51 335.98 680.74 329.63C687.579 327.475 694.778 326.697 701.92 327.34C706.822 327.93 711.507 329.702 715.571 332.505C719.635 335.308 722.957 339.058 725.25 343.43C728.096 349.02 729.912 355.076 730.61 361.31C730.61 361.39 730.61 361.47 730.61 361.56C731.86 371.56 731.15 382.05 731.26 391.98C731.45 412.7 729.68 433.38 727.39 453.98" stroke="black" stroke-width="3.7" stroke-linejoin="round"/>
<path d="M591.22 517.89V517.86" stroke="black" stroke-width="3.7" stroke-linejoin="round"/>
<path d="M510.14 493C519.61 504.08 525.51 520.25 521.45 534.71C520.45 538.14 516.83 542.79 513.54 538.56C512.708 537.363 512.151 535.997 511.91 534.56C510.98 530.49 509.76 526.49 509.05 522.36" stroke="black" stroke-width="3.7" stroke-miterlimit="10"/>
<path d="M517.41 540.2C594.76 519.76 704.29 512.84 727.88 405C730.968 390.641 731.891 375.902 730.62 361.27" stroke="black" stroke-width="3.7" stroke-miterlimit="10"/>
<path d="M591 522.76C589.47 548.56 581.39 576.76 576.93 590.76C576.581 591.846 576.472 592.994 576.61 594.126C576.749 595.258 577.131 596.347 577.731 597.316C578.331 598.286 579.134 599.114 580.085 599.743C581.036 600.372 582.113 600.787 583.24 600.96C586.89 601.53 591.51 602.21 596.82 602.96L597.45 603.05C597.67 603.05 597.88 603.13 598.13 603.15L598.67 603.24C599.14 603.29 599.6 603.37 600.06 603.43C601.26 603.62 602.51 603.78 603.79 603.97C604.36 603.97 604.96 604.11 605.59 604.22C636.59 608.62 682.77 614.37 708.9 613.8C709.58 613.8 710.26 613.8 710.9 613.74L712.9 613.66L714.84 613.55C721.98 613.03 726.84 611.81 728.23 609.66C737.23 596.05 720.53 517.83 728.53 442.96" stroke="black" stroke-width="3.7" stroke-miterlimit="10"/>
<path d="M799.03 946.39H66.8" stroke="black" stroke-width="3.7" stroke-linejoin="round"/>
<path d="M100.73 717.1C100.73 717.1 1.57999 833.39 100.73 945.18" stroke="#CCDDE2" stroke-width="3.7" stroke-miterlimit="10"/>
</svg>
