<svg width="16" height="17" viewBox="0 0 16 17" fill="none" xmlns="http://www.w3.org/2000/svg">
<path d="M15 6.5C15 6.63261 14.9473 6.75979 14.8536 6.85355C14.7598 6.94732 14.6326 7 14.5 7H13.5V8C13.5 8.13261 13.4473 8.25979 13.3536 8.35355C13.2598 8.44732 13.1326 8.5 13 8.5C12.8674 8.5 12.7402 8.44732 12.6465 8.35355C12.5527 8.25979 12.5 8.13261 12.5 8V7H11.5C11.3674 7 11.2402 6.94732 11.1465 6.85355C11.0527 6.75979 11 6.63261 11 6.5C11 6.36739 11.0527 6.24021 11.1465 6.14645C11.2402 6.05268 11.3674 6 11.5 6H12.5V5C12.5 4.86739 12.5527 4.74021 12.6465 4.64645C12.7402 4.55268 12.8674 4.5 13 4.5C13.1326 4.5 13.2598 4.55268 13.3536 4.64645C13.4473 4.74021 13.5 4.86739 13.5 5V6H14.5C14.6326 6 14.7598 6.05268 14.8536 6.14645C14.9473 6.24021 15 6.36739 15 6.5ZM9.00003 4H9.50003V4.5C9.50003 4.63261 9.5527 4.75979 9.64647 4.85355C9.74024 4.94732 9.86742 5 10 5C10.1326 5 10.2598 4.94732 10.3536 4.85355C10.4473 4.75979 10.5 4.63261 10.5 4.5V4H11C11.1326 4 11.2598 3.94732 11.3536 3.85355C11.4473 3.75979 11.5 3.63261 11.5 3.5C11.5 3.36739 11.4473 3.24021 11.3536 3.14645C11.2598 3.05268 11.1326 3 11 3H10.5V2.5C10.5 2.36739 10.4473 2.24021 10.3536 2.14645C10.2598 2.05268 10.1326 2 10 2C9.86742 2 9.74024 2.05268 9.64647 2.14645C9.5527 2.24021 9.50003 2.36739 9.50003 2.5V3H9.00003C8.86742 3 8.74024 3.05268 8.64647 3.14645C8.5527 3.24021 8.50003 3.36739 8.50003 3.5C8.50003 3.63261 8.5527 3.75979 8.64647 3.85355C8.74024 3.94732 8.86742 4 9.00003 4ZM13.0713 9.89563C12.1844 10.0708 11.2681 10.0249 10.4032 9.76196C9.53826 9.49899 8.75143 9.02704 8.11221 8.38781C7.47299 7.74859 7.00104 6.96177 6.73806 6.09687C6.47509 5.23196 6.42918 4.31561 6.6044 3.42875C6.62156 3.34172 6.61527 3.25169 6.58615 3.16789C6.55703 3.0841 6.50615 3.00956 6.43871 2.95192C6.37128 2.89428 6.28973 2.85562 6.20242 2.83991C6.11511 2.8242 6.0252 2.83199 5.9419 2.8625C4.99511 3.20871 4.15081 3.78789 3.48697 4.54657C2.82313 5.30524 2.36116 6.21895 2.1437 7.20332C1.92624 8.18769 1.96031 9.21099 2.24277 10.1787C2.52523 11.1464 3.04696 12.0274 3.7598 12.7402C4.47264 13.4531 5.35359 13.9748 6.32132 14.2573C7.28904 14.5397 8.31233 14.5738 9.2967 14.3563C10.2811 14.1389 11.1948 13.6769 11.9535 13.0131C12.7121 12.3492 13.2913 11.5049 13.6375 10.5581C13.668 10.4748 13.6758 10.3849 13.6601 10.2976C13.6444 10.2103 13.6057 10.1287 13.5481 10.0613C13.4905 9.99388 13.4159 9.94299 13.3321 9.91388C13.2483 9.88476 13.1583 9.87846 13.0713 9.89563Z" fill="#E8EAED"/>
</svg>
