<svg width="24" height="24" viewBox="0 0 24 24" fill="none" xmlns="http://www.w3.org/2000/svg">
<g id="Component 1">
<path id="Vector" opacity="0.2" d="M20.25 10.832V20.2501H14.25V15.0001C14.25 14.8012 14.171 14.6104 14.0303 14.4698C13.8897 14.3291 13.6989 14.2501 13.5 14.2501H10.5C10.3011 14.2501 10.1103 14.3291 9.96967 14.4698C9.82902 14.6104 9.75 14.8012 9.75 15.0001V20.2501H3.75V10.832C3.75001 10.7275 3.77187 10.6241 3.81416 10.5285C3.85646 10.433 3.91827 10.3473 3.99562 10.277L11.4956 3.19511C11.6337 3.06942 11.8137 2.99976 12.0005 2.99976C12.1872 2.99976 12.3672 3.06942 12.5053 3.19511L20.0053 10.277C20.0825 10.3474 20.1441 10.4331 20.1863 10.5286C20.2284 10.6242 20.2501 10.7275 20.25 10.832Z" fill="#E8EAED"/>
<path id="Vector_2" d="M22.5 19.5001H21V10.8329C21 10.6253 20.957 10.42 20.8735 10.2299C20.7901 10.0398 20.6681 9.86907 20.5153 9.72855L13.0153 2.6523C13.0116 2.6491 13.0082 2.64566 13.005 2.64199C12.7289 2.39086 12.369 2.25171 11.9958 2.25171C11.6225 2.25171 11.2627 2.39086 10.9866 2.64199L10.9762 2.6523L3.48469 9.72855C3.33187 9.86907 3.20989 10.0398 3.12646 10.2299C3.04303 10.42 2.99997 10.6253 3 10.8329V19.5001H1.5C1.30109 19.5001 1.11032 19.5791 0.96967 19.7198C0.829018 19.8604 0.75 20.0512 0.75 20.2501C0.75 20.449 0.829018 20.6398 0.96967 20.7804C1.11032 20.9211 1.30109 21.0001 1.5 21.0001H22.5C22.6989 21.0001 22.8897 20.9211 23.0303 20.7804C23.171 20.6398 23.25 20.449 23.25 20.2501C23.25 20.0512 23.171 19.8604 23.0303 19.7198C22.8897 19.5791 22.6989 19.5001 22.5 19.5001ZM4.5 10.8329L4.51031 10.8236L12 3.75011L19.4906 10.8217L19.5009 10.8311V19.5001H15V15.0001C15 14.6023 14.842 14.2208 14.5607 13.9395C14.2794 13.6582 13.8978 13.5001 13.5 13.5001H10.5C10.1022 13.5001 9.72064 13.6582 9.43934 13.9395C9.15804 14.2208 9 14.6023 9 15.0001V19.5001H4.5V10.8329ZM13.5 19.5001H10.5V15.0001H13.5V19.5001Z" fill="#E8EAED"/>
</g>
</svg>
