<svg width="22" height="22" viewBox="0 0 22 22" fill="none" xmlns="http://www.w3.org/2000/svg">
<path opacity="0.2" d="M19.0413 8.20492L16.5938 10.6525L11.9727 6.03136L14.4202 3.58383C14.544 3.46012 14.7118 3.39062 14.8868 3.39062C15.0618 3.39062 15.2297 3.46012 15.3535 3.58383L19.0413 7.26915C19.1029 7.33049 19.1518 7.4034 19.1852 7.4837C19.2185 7.56399 19.2357 7.65008 19.2357 7.73703C19.2357 7.82399 19.2185 7.91008 19.1852 7.99038C19.1518 8.07067 19.1029 8.14358 19.0413 8.20492Z" fill="black"/>
<path d="M19.5083 6.80426L15.8205 3.11729C15.6979 2.99465 15.5524 2.89737 15.3922 2.831C15.232 2.76463 15.0603 2.73047 14.8868 2.73047C14.7134 2.73047 14.5417 2.76463 14.3815 2.831C14.2213 2.89737 14.0757 2.99465 13.9531 3.11729L3.77765 13.2928C3.65451 13.4149 3.55689 13.5603 3.49045 13.7206C3.42401 13.8808 3.39008 14.0526 3.39063 14.2261V17.9139C3.39063 18.264 3.52974 18.5999 3.77734 18.8475C4.02495 19.0951 4.36078 19.2342 4.71094 19.2342H18.5742C18.7493 19.2342 18.9172 19.1646 19.041 19.0408C19.1648 18.917 19.2344 18.7491 19.2344 18.574C19.2344 18.3989 19.1648 18.231 19.041 18.1072C18.9172 17.9834 18.7493 17.9139 18.5742 17.9139H10.2662L19.5083 8.67168C19.631 8.54907 19.7283 8.40351 19.7946 8.2433C19.861 8.08309 19.8952 7.91138 19.8952 7.73797C19.8952 7.56456 19.861 7.39284 19.7946 7.23264C19.7283 7.07243 19.631 6.92687 19.5083 6.80426ZM4.71094 14.2261L11.9727 6.96435L15.6605 10.6521L8.39874 17.9139H4.71094V14.2261ZM16.5938 9.71885L12.9068 6.03105L14.8873 4.05058L18.5742 7.73838L16.5938 9.71885Z" fill="black"/>
</svg>
