<svg width="15" height="16" viewBox="0 0 15 16" fill="none" xmlns="http://www.w3.org/2000/svg">
<g id="Component 1">
<path id="Vector" opacity="0.2" d="M11.8478 3.94714V12.5032C11.8478 12.6226 11.8003 12.7371 11.7159 12.8216C11.6314 12.906 11.5169 12.9535 11.3975 12.9535H4.19238C4.07295 12.9535 3.95841 12.906 3.87396 12.8216C3.78951 12.7371 3.74207 12.6226 3.74207 12.5032V3.94714H11.8478Z" fill="#E8EAED"/>
<path id="Vector_2" d="M12.7484 3.49658H10.4968V3.04626C10.4968 2.68797 10.3545 2.34435 10.1011 2.091C9.84779 1.83764 9.50417 1.69531 9.14587 1.69531H6.44397C6.08568 1.69531 5.74205 1.83764 5.4887 2.091C5.23535 2.34435 5.09302 2.68797 5.09302 3.04626V3.49658H2.84143C2.722 3.49658 2.60746 3.54403 2.52301 3.62848C2.43856 3.71293 2.39111 3.82747 2.39111 3.9469C2.39111 4.06633 2.43856 4.18087 2.52301 4.26532C2.60746 4.34977 2.722 4.39722 2.84143 4.39722H3.29175V12.5029C3.29175 12.7418 3.38664 12.9709 3.55554 13.1398C3.72444 13.3087 3.95352 13.4036 4.19238 13.4036H11.3975C11.6363 13.4036 11.8654 13.3087 12.0343 13.1398C12.2032 12.9709 12.2981 12.7418 12.2981 12.5029V4.39722H12.7484C12.8678 4.39722 12.9824 4.34977 13.0668 4.26532C13.1513 4.18087 13.1987 4.06633 13.1987 3.9469C13.1987 3.82747 13.1513 3.71293 13.0668 3.62848C12.9824 3.54403 12.8678 3.49658 12.7484 3.49658ZM5.99365 3.04626C5.99365 2.92683 6.0411 2.81229 6.12555 2.72784C6.21 2.64339 6.32454 2.59595 6.44397 2.59595H9.14587C9.26531 2.59595 9.37985 2.64339 9.4643 2.72784C9.54875 2.81229 9.59619 2.92683 9.59619 3.04626V3.49658H5.99365V3.04626ZM11.3975 12.5029H4.19238V4.39722H11.3975V12.5029ZM6.89429 6.6488V10.2513C6.89429 10.3708 6.84684 10.4853 6.76239 10.5698C6.67794 10.6542 6.5634 10.7017 6.44397 10.7017C6.32454 10.7017 6.21 10.6542 6.12555 10.5698C6.0411 10.4853 5.99365 10.3708 5.99365 10.2513V6.6488C5.99365 6.52937 6.0411 6.41483 6.12555 6.33038C6.21 6.24593 6.32454 6.19849 6.44397 6.19849C6.5634 6.19849 6.67794 6.24593 6.76239 6.33038C6.84684 6.41483 6.89429 6.52937 6.89429 6.6488ZM9.59619 6.6488V10.2513C9.59619 10.3708 9.54875 10.4853 9.4643 10.5698C9.37985 10.6542 9.26531 10.7017 9.14587 10.7017C9.02644 10.7017 8.9119 10.6542 8.82745 10.5698C8.743 10.4853 8.69556 10.3708 8.69556 10.2513V6.6488C8.69556 6.52937 8.743 6.41483 8.82745 6.33038C8.9119 6.24593 9.02644 6.19849 9.14587 6.19849C9.26531 6.19849 9.37985 6.24593 9.4643 6.33038C9.54875 6.41483 9.59619 6.52937 9.59619 6.6488Z" fill="#E8EAED"/>
</g>
</svg>
