<svg width="21" height="21" viewBox="0 0 21 21" fill="none" xmlns="http://www.w3.org/2000/svg">
<path d="M14.1091 9.84375C14.1091 10.5576 13.8974 11.2555 13.5008 11.849C13.1042 12.4426 12.5405 12.9052 11.881 13.1784C11.2215 13.4516 10.4958 13.523 9.79561 13.3838C9.09546 13.2445 8.45233 12.9007 7.94755 12.396C7.44277 11.8912 7.09901 11.2481 6.95974 10.5479C6.82047 9.84775 6.89195 9.12203 7.16513 8.4625C7.43832 7.80297 7.90094 7.23927 8.4945 6.84266C9.08806 6.44606 9.78589 6.23438 10.4998 6.23438C11.4567 6.23546 12.3741 6.61608 13.0508 7.29274C13.7274 7.96939 14.108 8.88682 14.1091 9.84375ZM19.031 10.5C19.031 12.1873 18.5307 13.8368 17.5932 15.2397C16.6558 16.6427 15.3234 17.7361 13.7645 18.3818C12.2056 19.0276 10.4903 19.1965 8.8354 18.8673C7.1805 18.5381 5.66037 17.7256 4.46725 16.5325C3.27414 15.3394 2.46162 13.8193 2.13244 12.1644C1.80326 10.5095 1.9722 8.79411 2.61791 7.23523C3.26362 5.67635 4.35709 4.34395 5.76005 3.40652C7.16301 2.4691 8.81244 1.96875 10.4998 1.96875C12.7617 1.97114 14.9302 2.87073 16.5296 4.47013C18.129 6.06954 19.0286 8.2381 19.031 10.5ZM17.7185 10.5C17.7175 9.52837 17.5205 8.56692 17.1393 7.67317C16.7582 6.77941 16.2007 5.9717 15.5002 5.29834C14.7998 4.62498 13.9707 4.0998 13.0626 3.75421C12.1545 3.40862 11.186 3.24971 10.2151 3.28699C6.35144 3.43629 3.27035 6.65438 3.28101 10.5205C3.28471 12.2805 3.93383 13.978 5.10538 15.2914C5.5825 14.5994 6.18856 14.0059 6.89038 13.5434C6.95022 13.5038 7.02136 13.485 7.09291 13.4897C7.16447 13.4945 7.2325 13.5225 7.2866 13.5696C8.17842 14.341 9.31815 14.7655 10.4973 14.7655C11.6764 14.7655 12.8162 14.341 13.708 13.5696C13.7621 13.5225 13.8301 13.4945 13.9017 13.4897C13.9732 13.485 14.0444 13.5038 14.1042 13.5434C14.8069 14.0057 15.4138 14.5992 15.8917 15.2914C17.069 13.9732 17.7194 12.2674 17.7185 10.5Z" fill="#E8EAED"/>
</svg>
